<?xml version="1.0" encoding="UTF-8"?>
<!-- Generated by jsxcad -->
<!DOCTYPE svg PUBLIC "-//W3C//DTD SVG 1.1 Tiny//EN" "http://www.w3.org/Graphics/SVG/1.1/DTD/svg11-tiny.dtd">
<svg viewBox="-250 -250 500 500" width="500" height="500" xmlns="http://www.w3.org/2000/svg"><path d="M-16.689074934767444,-79.04945592702407L-92.7506824173673,-58.44488496747202L-93.48382570497186,-57.694854686372025zM-11.614498332946509,-81.01793133199594L-92.3099323422627,-58.89579011116039L-92.7506824173673,-58.44488496747202zM-21.701577249619653,-76.87924270932031L-93.48382570497186,-57.694854686372025L-94.5071512105518,-56.64796999851557zM-6.494067215105178,-82.77791021353744L-92.16285676032476,-59.046246036202184L-92.3099323422627,-58.89579011116039zM-26.636014533205557,-74.51450731186841L-94.5071512105518,-56.64796999851557L-94.92326328179175,-56.22226481640725zM-26.636014533205557,-74.51450731186841L-94.92326328179175,-56.22226481640725L-95.71802087573923,-55.335018694236396zM93.74414691355486,-110.78835716677533L-38.333071967069515,-97.98121932668894L-45.421158965300435,-94.24769527333599zM93.74414691355486,-110.78835716677533L-31.11139953788082,-101.44989324540477L-38.333071967069515,-97.98121932668894zM93.74414691355486,-110.78835716677533L-45.421158965300435,-94.24769527333599L-52.3552913759733,-90.25992178956774zM93.74414691355486,-110.78835716677533L-23.776717405297312,-104.64353168685075L-31.11139953788082,-101.44989324540477zM-31.4765908110886,-71.96294598668457L-95.71802087573923,-55.335018694236396L-97.13433022457711,-53.7538962179669zM93.74414691355486,-110.78835716677533L-52.3552913759733,-90.25992178956774L-59.115393209637446,-86.02901458311494zM93.74414691355486,-110.78835716677533L-16.349876450863913,-107.55247154419843L-23.776717405297312,-104.64353168685075zM93.74414691355486,-110.78835716677533L-59.115393209637446,-86.02901458311494L-65.68156286449434,-81.56655157349873zM-36.20774913038494,-69.23271361363155L-97.13433022457711,-53.7538962179669L-98.79815915800587,-51.89646638026676zM93.74414691355486,-110.78835716677533L-8.852047482720025,-110.16746897498201L-16.349876450863913,-107.55247154419843zM-40.81421514251413,-66.33239729684963L-98.79815915800587,-51.89646638026676L-99.92091487545974,-50.643058455488706zM93.74414691355486,-110.78835716677533L-65.68156286449434,-81.56655157349873L-72.0341514309017,-76.88459746001165zM-40.81421514251413,-66.33239729684963L-99.92091487545974,-50.643058455488706L-100.61589103272443,-49.792822622684525zM93.74414691355486,-110.78835716677533L-1.304649046718286,-112.47975714078156L-8.852047482720025,-110.16746897498201zM93.74414691355486,-110.78835716677533L-72.0341514309017,-76.88459746001165L-78.15370769945187,-71.99578629060592zM-45.28094513450159,-63.27105215502804L-100.61589103272443,-49.792822622684525L-102.5168037007273,-47.467239858150364zM93.74414691355486,-110.78835716677533L6.2705687498251725,-114.48105923794158L-1.304649046718286,-112.47975714078156zM93.74414691355486,-110.78835716677533L-78.15370769945187,-71.99578629060592L-84.02102234991753,-66.91321603873538zM-49.593222043823744,-60.05815226288332L-102.5168037007273,-47.467239858150364L-104.5919560368859,-44.92849024963764zM-49.593222043823744,-60.05815226288332L-104.5919560368859,-44.92849024963764L-104.61862602151565,-44.892517446856466zM93.74414691355486,-110.78835716677533L13.851527003758363,-116.16358522132873L6.2705687498251725,-114.48105923794158zM-26.636014533205557,-74.51450731186841L-21.701577249619653,-76.87924270932031L-94.5071512105518,-56.64796999851557zM-21.701577249619653,-76.87924270932031L-16.689074934767444,-79.04945592702407L-93.48382570497186,-57.694854686372025zM-31.4765908110886,-71.96294598668457L-26.636014533205557,-74.51450731186841L-95.71802087573923,-55.335018694236396zM-16.689074934767444,-79.04945592702407L-11.614498332946509,-81.01793133199594L-92.7506824173673,-58.44488496747202zM93.74414691355486,-110.78835716677533L-84.02102234991753,-66.91321603873538L-89.61712147195425,-61.650618856115095zM-53.73655792185558,-56.703658155603954L-104.61862602151565,-44.892517446856466L-106.65377558163995,-42.14839052728332zM-36.20774913038494,-69.23271361363155L-31.4765908110886,-71.96294598668457L-97.13433022457711,-53.7538962179669zM-11.614498332946509,-81.01793133199594L-6.494067215105178,-82.77791021353744L-92.3099323422627,-58.89579011116039zM93.74414691355486,-110.78835716677533L21.41582777923994,-117.52006269544302L13.851527003758363,-116.16358522132873zM-40.81421514251413,-66.33239729684963L-36.20774913038494,-69.23271361363155L-98.79815915800587,-51.89646638026676zM-6.494067215105178,-82.77791021353744L-1.3442065160022372,-84.32312673354551L-92.16285676032476,-59.046246036202184zM93.74414691355486,-110.78835716677533L-89.61712147195425,-61.650618856115095L-92.16285676032476,-59.046246036202184zM-45.28094513450159,-63.27105215502804L-40.81421514251413,-66.33239729684963L-100.61589103272443,-49.792822622684525zM-57.69688252092479,-53.21789220129527L-106.65377558163995,-42.14839052728332L-108.85790634344073,-39.176418619829406z" style="fill:rgb(83,212,212)"/><path d="M-23.83747731844021,-68.96386993922172L-31.4765908110886,-71.96294598668457L-28.65380162056164,-66.42465052497985z" style="fill:rgb(168,53,222)"/><path d="M-18.92707346517154,-71.31582361286816L-26.636014533205557,-74.51450731186841L-23.83747731844021,-68.96386993922172z" style="fill:rgb(160,49,222)"/><path d="M-28.65380162056164,-66.42465052497985L-36.20774913038494,-69.23271361363155L-33.36054845184428,-63.70629010681268z" style="fill:rgb(175,57,222)"/><path d="M-13.938329407714546,-73.47286228986536L-21.701577249619653,-76.87924270932031L-18.92707346517154,-71.31582361286816z" style="fill:rgb(153,46,222)"/><path d="M93.74414691355486,-110.78835716677533L28.94066951827437,-118.54377905511448L21.41582777923994,-117.52006269544302zM-49.593222043823744,-60.05815226288332L-45.28094513450159,-63.27105215502804L-102.5168037007273,-47.467239858150364z" style="fill:rgb(83,212,212)"/><path d="M-33.36054845184428,-63.70629010681268L-40.81421514251413,-66.33239729684963L-37.94250722732529,-60.81736229970054z" style="fill:rgb(181,61,221)"/><path d="M-8.887176176467113,-75.42779595823302L-16.689074934767444,-79.04945592702407L-13.938329407714546,-73.47286228986536z" style="fill:rgb(146,43,221)"/><path d="M-61.460407166701444,-49.6116792330627L-108.85790634344073,-39.176418619829406L-108.91846569711323,-39.09475684202755z" style="fill:rgb(83,212,212)"/><path d="M-37.94250722732529,-60.81736229970054L-45.28094513450159,-63.27105215502804L-42.38470689555146,-57.76688235862325z" style="fill:rgb(188,65,220)"/><path d="M-3.7897777612201273,-77.17388943005807L-11.614498332946509,-81.01793133199594L-8.887176176467113,-75.42779595823302z" style="fill:rgb(138,40,220)"/><path d="M-61.460407166701444,-49.6116792330627L-108.91846569711323,-39.09475684202755L-110.9435314219402,-36.06266550970547z" style="fill:rgb(83,212,212)"/><path d="M-23.83747731844021,-68.96386993922172L-26.636014533205557,-74.51450731186841L-31.4765908110886,-71.96294598668457z" style="fill:rgb(168,53,222)"/><path d="M-18.92707346517154,-71.31582361286816L-21.701577249619653,-76.87924270932031L-26.636014533205557,-74.51450731186841z" style="fill:rgb(160,49,222)"/><path d="M-28.65380162056164,-66.42465052497985L-31.4765908110886,-71.96294598668457L-36.20774913038494,-69.23271361363155z" style="fill:rgb(175,57,222)"/><path d="M-53.73655792185558,-56.703658155603954L-49.593222043823744,-60.05815226288332L-104.61862602151565,-44.892517446856466z" style="fill:rgb(83,212,212)"/><path d="M-13.938329407714546,-73.47286228986536L-16.689074934767444,-79.04945592702407L-21.701577249619653,-76.87924270932031z" style="fill:rgb(153,46,222)"/><path d="M-33.36054845184428,-63.70629010681268L-36.20774913038494,-69.23271361363155L-40.81421514251413,-66.33239729684963z" style="fill:rgb(181,61,221)"/><path d="M-42.38470689555146,-57.76688235862325L-49.593222043823744,-60.05815226288332L-46.67247337523393,-54.56430076201442z" style="fill:rgb(194,70,219)"/><path d="M1.3374987314674058,-78.70494101795923L-6.494067215105178,-82.77791021353744L-3.7897777612201273,-77.17388943005807z" style="fill:rgb(131,38,218)"/><path d="M93.74414691355486,-110.78835716677533L36.40293614880882,-119.22856397349705L28.94066951827437,-118.54377905511448z" style="fill:rgb(83,212,212)"/><path d="M-8.887176176467113,-75.42779595823302L-11.614498332946509,-81.01793133199594L-16.689074934767444,-79.04945592702407z" style="fill:rgb(146,43,221)"/><path d="M-37.94250722732529,-60.81736229970054L-40.81421514251413,-66.33239729684963L-45.28094513450159,-63.27105215502804z" style="fill:rgb(188,65,220)"/><path d="M-57.69688252092479,-53.21789220129527L-53.73655792185558,-56.703658155603954L-106.65377558163995,-42.14839052728332z" style="fill:rgb(83,212,212)"/><path d="M-3.7897777612201273,-77.17388943005807L-6.494067215105178,-82.77791021353744L-11.614498332946509,-81.01793133199594z" style="fill:rgb(138,40,220)"/><path d="M-46.67247337523393,-54.56430076201442L-53.73655792185558,-56.703658155603954L-50.79140298530425,-51.219571681043355z" style="fill:rgb(200,75,217)"/><path d="M-65.01372781793314,-45.89622944041461L-110.9435314219402,-36.06266550970547L-112.88301322191529,-33.15869466685212z" style="fill:rgb(83,212,212)"/><path d="M-42.38470689555146,-57.76688235862325L-45.28094513450159,-63.27105215502804L-49.593222043823744,-60.05815226288332z" style="fill:rgb(194,70,219)"/><path d="M6.478109932198768,-80.01524233246097L-1.3442065160022372,-84.32312673354551L1.3374987314674058,-78.70494101795923z" style="fill:rgb(123,36,216)"/><path d="M-65.01372781793314,-45.89622944041461L-112.88301322191529,-33.15869466685212L-113.12242294164811,-32.75668722283813z" style="fill:rgb(83,212,212)"/><path d="M1.3374987314674058,-78.70494101795923L-1.3442065160022372,-84.32312673354551L-6.494067215105178,-82.77791021353744z" style="fill:rgb(131,38,218)"/><path d="M-46.67247337523393,-54.56430076201442L-49.593222043823744,-60.05815226288332L-53.73655792185558,-56.703658155603954z" style="fill:rgb(200,75,217)"/><path d="M93.74414691355486,-110.78835716677533L43.7791724179157,-119.56891767097083L36.40293614880882,-119.22856397349705z" style="fill:rgb(83,212,212)"/><path d="M-50.79140298530425,-51.219571681043355L-57.69688252092479,-53.21789220129527L-54.727493422970795,-47.742983144964086z" style="fill:rgb(206,80,215)"/><path d="M-61.460407166701444,-49.6116792330627L-57.69688252092479,-53.21789220129527L-108.85790634344073,-39.176418619829406z" style="fill:rgb(83,212,212)"/><path d="M11.615343304974594,-81.09959859844422L3.818484438265839,-85.64783327636313L6.478109932198768,-80.01524233246097z" style="fill:rgb(116,34,214)"/><path d="M6.478109932198768,-80.01524233246097L3.818484438265839,-85.64783327636313L-1.3442065160022372,-84.32312673354551z" style="fill:rgb(123,36,216)"/><path d="M-68.3438212694365,-42.08321568162901L-113.12242294164811,-32.75668722283813L-115.16307093265475,-29.330024964286867z" style="fill:rgb(83,212,212)"/><path d="M-50.79140298530425,-51.219571681043355L-53.73655792185558,-56.703658155603954L-57.69688252092479,-53.21789220129527z" style="fill:rgb(206,80,215)"/><path d="M-54.727493422970795,-47.742983144964086L-61.460407166701444,-49.6116792330627L-58.46701199208778,-44.14534167031378z" style="fill:rgb(212,85,213)"/><path d="M16.732323040719425,-81.95333639053396L8.977236586190125,-86.74679824821527L11.615343304974594,-81.09959859844422z" style="fill:rgb(108,33,211)"/><path d="M-65.01372781793314,-45.89622944041461L-61.460407166701444,-49.6116792330627L-110.9435314219402,-36.06266550970547zM93.74414691355486,-110.78835716677533L51.04552074288276,-119.55994414787702L43.7791724179157,-119.56891767097083z" style="fill:rgb(83,212,212)"/><path d="M11.615343304974594,-81.09959859844422L8.977236586190125,-86.74679824821527L3.818484438265839,-85.64783327636313z" style="fill:rgb(116,34,214)"/><path d="M-54.727493422970795,-47.742983144964086L-57.69688252092479,-53.21789220129527L-61.460407166701444,-49.6116792330627z" style="fill:rgb(212,85,213)"/><path d="M-71.4381715320615,-38.18467214268348L-115.16307093265475,-29.330024964286867L-116.46854446166844,-27.137864191752904z" style="fill:rgb(83,212,212)"/><path d="M-58.46701199208778,-44.14534167031378L-65.01372781793314,-45.89622944041461L-61.996642714471726,-40.437851526734114z" style="fill:rgb(217,91,210)"/><path d="M21.812046325406897,-82.57237692738157L14.115119389900427,-87.61529651806255L16.732323040719425,-81.95333639053396z" style="fill:rgb(101,32,208)"/><path d="M-71.4381715320615,-38.18467214268348L-116.46854446166844,-27.137864191752904L-117.19226203130924,-25.75679290938511z" style="fill:rgb(83,212,212)"/><path d="M16.732323040719425,-81.95333639053396L14.115119389900427,-87.61529651806255L8.977236586190125,-86.74679824821527z" style="fill:rgb(108,33,211)"/><path d="M-68.3438212694365,-42.08321568162901L-65.01372781793314,-45.89622944041461L-113.12242294164811,-32.75668722283813z" style="fill:rgb(83,212,212)"/><path d="M-58.46701199208778,-44.14534167031378L-61.460407166701444,-49.6116792330627L-65.01372781793314,-45.89622944041461z" style="fill:rgb(217,91,210)"/><path d="M93.74414691355486,-110.78835716677533L58.17784659768039,-119.197534664085L51.04552074288276,-119.55994414787702z" style="fill:rgb(83,212,212)"/><path d="M-61.996642714471726,-40.437851526734114L-68.3438212694365,-42.08321568162901L-65.30343262178056,-36.632170450799165z" style="fill:rgb(222,96,207)"/><path d="M26.8374159422561,-82.9532167234312L19.21507226844092,-88.24919663387789L21.812046325406897,-82.57237692738157z" style="fill:rgb(94,32,205)"/><path d="M21.812046325406897,-82.57237692738157L19.21507226844092,-88.24919663387789L14.115119389900427,-87.61529651806255z" style="fill:rgb(101,32,208)"/><path d="M-74.2846453556242,-34.21311596136462L-117.19226203130924,-25.75679290938511L-119.12438374756005,-22.069699722684174zM-71.4381715320615,-38.18467214268348L-68.3438212694365,-42.08321568162901L-115.16307093265475,-29.330024964286867z" style="fill:rgb(83,212,212)"/><path d="M-61.996642714471726,-40.437851526734114L-65.01372781793314,-45.89622944041461L-68.3438212694365,-42.08321568162901z" style="fill:rgb(222,96,207)"/><path d="M-65.30343262178056,-36.632170450799165L-71.4381715320615,-38.18467214268348L-68.37494276612304,-32.74030951233288z" style="fill:rgb(226,102,203)"/><path d="M93.74414691355486,-110.78835716677533L65.15164255714414,-118.47830023909458L58.17784659768039,-119.197534664085z" style="fill:rgb(83,212,212)"/><path d="M31.79121636995884,-83.09294282306037L24.25994313808304,-88.6449402373972L26.8374159422561,-82.9532167234312z" style="fill:rgb(86,32,201)"/><path d="M-76.87167710394374,-30.181425933360728L-119.12438374756005,-22.069699722684174L-119.65847857156882,-21.05049595024103z" style="fill:rgb(83,212,212)"/><path d="M26.8374159422561,-82.9532167234312L24.25994313808304,-88.6449402373972L19.21507226844092,-88.24919663387789z" style="fill:rgb(94,32,205)"/><path d="M-65.30343262178056,-36.632170450799165L-68.3438212694365,-42.08321568162901L-71.4381715320615,-38.18467214268348z" style="fill:rgb(226,102,203)"/><path d="M-74.2846453556242,-34.21311596136462L-71.4381715320615,-38.18467214268348L-117.19226203130924,-25.75679290938511zM-76.87167710394374,-30.181425933360728L-119.65847857156882,-21.05049595024103L-120.9074383345176,-18.292692111596995zM93.9050595360201,-110.71846999133437L-1.3442065160022372,-84.32312673354551L3.818484438265839,-85.64783327636313z" style="fill:rgb(83,212,212)"/><path d="M-68.37494276612304,-32.74030951233288L-74.2846453556242,-34.21311596136462L-71.19911970328117,-28.774778199275083z" style="fill:rgb(230,108,199)"/><path d="M31.79121636995884,-83.09294282306037L29.232457359196623,-88.79955886212781L24.25994313808304,-88.6449402373972z" style="fill:rgb(86,32,201)"/><path d="M36.65617383736279,-82.98929622382789L29.232457359196623,-88.79955886212781L31.79121636995884,-83.09294282306037z" style="fill:rgb(79,32,198)"/><path d="M93.74414691355486,-110.78835716677533L71.94214821476959,-117.39970463494237L65.15164255714414,-118.47830023909458zM94.3874205484551,-110.50893239718512L3.818484438265839,-85.64783327636313L8.977236586190125,-86.74679824821527z" style="fill:rgb(83,212,212)"/><path d="M-68.37494276612304,-32.74030951233288L-71.4381715320615,-38.18467214268348L-74.2846453556242,-34.21311596136462z" style="fill:rgb(230,108,199)"/><path d="M-76.87167710394374,-30.181425933360728L-74.2846453556242,-34.21311596136462L-119.12438374756005,-22.069699722684174zM-79.18824781227607,-26.102892595010015L-120.9074383345176,-18.292692111596995L-122.43686387996225,-14.915571153937666zM95.19026762482966,-110.16016418284931L8.977236586190125,-86.74679824821527L14.115119389900427,-87.61529651806255zM-79.18824781227607,-26.102892595010015L-122.43686387996225,-14.915571153937666L-122.62875520822978,-14.412675831066469z" style="fill:rgb(83,212,212)"/><path d="M-71.19911970328117,-28.774778199275083L-76.87167710394374,-30.181425933360728L-73.76447928231968,-24.74844143505119z" style="fill:rgb(234,114,195)"/><path d="M36.65617383736279,-82.98929622382789L34.11528257344717,-88.71073445279293L29.232457359196623,-88.79955886212781z" style="fill:rgb(79,32,198)"/><path d="M41.415018284353245,-82.64066504851002L34.11528257344717,-88.71073445279293L36.65617383736279,-82.98929622382789z" style="fill:rgb(73,33,193)"/><path d="M-71.19911970328117,-28.774778199275083L-74.2846453556242,-34.21311596136462L-76.87167710394374,-30.181425933360728z" style="fill:rgb(234,114,195)"/><path d="M96.31190459693582,-109.67292772816043L14.115119389900427,-87.61529651806255L19.21507226844092,-88.24919663387789zM93.74414691355486,-110.78835716677533L78.5243320287356,-115.96015315176223L71.94214821476959,-117.39970463494237zM-79.18824781227607,-26.102892595010015L-76.87167710394374,-30.181425933360728L-120.9074383345176,-18.292692111596995zM-81.22394032259645,-21.991176223720654L-122.62875520822978,-14.412675831066469L-124.12780183262542,-10.483936910222393z" style="fill:rgb(83,212,212)"/><path d="M-73.76447928231968,-24.74844143505119L-79.18824781227607,-26.102892595010015L-76.06008609587317,-20.67458652128725z" style="fill:rgb(237,120,191)"/><path d="M97.64041513042127,-109.01782824418683L19.21507226844092,-88.24919663387789L24.25994313808304,-88.6449402373972z" style="fill:rgb(83,212,212)"/><path d="M41.415018284353245,-82.64066504851002L38.89109281635064,-88.3767926259352L34.11528257344717,-88.71073445279293z" style="fill:rgb(73,33,193)"/><path d="M46.05045115159384,-82.0461360015482L38.89109281635064,-88.3767926259352L41.415018284353245,-82.64066504851002z" style="fill:rgb(66,34,189)"/><path d="M-73.76447928231968,-24.74844143505119L-76.87167710394374,-30.181425933360728L-79.18824781227607,-26.102892595010015z" style="fill:rgb(237,120,191)"/><path d="M93.9050595360201,-110.71846999133437L93.74414691355486,-110.78835716677533L-1.3442065160022372,-84.32312673354551zM93.74414691355486,-110.78835716677533L84.87298919587265,-114.15895951400708L78.5243320287356,-115.96015315176223zM-81.22394032259645,-21.991176223720654L-79.18824781227607,-26.102892595010015L-122.62875520822978,-14.412675831066469zM94.3874205484551,-110.50893239718512L93.9050595360201,-110.71846999133437L3.818484438265839,-85.64783327636313zM-82.9689976330431,-17.860317729860434L-124.12780183262542,-10.483936910222393L-124.78836020514024,-8.752768406047494zM99.1963137970031,-108.20283436364073L24.25994313808304,-88.6449402373972L29.232457359196623,-88.79955886212781zM95.19026762482966,-110.16016418284931L94.3874205484551,-110.50893239718512L8.977236586190125,-86.74679824821527zM-82.9689976330431,-17.860317729860434L-124.78836020514024,-8.752768406047494L-125.48701706495247,-6.495857537235082z" style="fill:rgb(83,212,212)"/><path d="M-76.06008609587317,-20.67458652128725L-81.22394032259645,-21.991176223720654L-78.07560818379169,-16.566855348577636z" style="fill:rgb(240,125,187)"/><path d="M46.05045115159384,-82.0461360015482L43.54254128706631,-87.79675794321003L38.89109281635064,-88.3767926259352z" style="fill:rgb(66,34,189)"/><path d="M50.54526864705992,-81.20552460199379L43.54254128706631,-87.79675794321003L46.05045115159384,-82.0461360015482z" style="fill:rgb(60,35,184)"/><path d="M-76.06008609587317,-20.67458652128725L-79.18824781227607,-26.102892595010015L-81.22394032259645,-21.991176223720654z" style="fill:rgb(240,125,187)"/><path d="M96.31190459693582,-109.67292772816043L95.19026762482966,-110.16016418284931L14.115119389900427,-87.61529651806255zM101.02702729996977,-107.2439014791088L29.232457359196623,-88.79955886212781L34.11528257344717,-88.71073445279293zM-82.9689976330431,-17.860317729860434L-81.22394032259645,-21.991176223720654L-124.12780183262542,-10.483936910222393zM93.74414691355486,-110.78835716677533L90.96279014159428,-111.99660712033726L84.87298919587265,-114.15895951400708zM97.64041513042127,-109.01782824418683L96.31190459693582,-109.67292772816043L19.21507226844092,-88.24919663387789zM-84.41436857763465,-13.72471271978232L-125.48701706495247,-6.495857537235082L-126.69842801090017,-2.582486193474866z" style="fill:rgb(83,212,212)"/><path d="M-78.07560818379169,-16.566855348577636L-82.9689976330431,-17.860317729860434L-79.80137041283388,-12.439284539808556z" style="fill:rgb(242,131,182)"/><path d="M50.54526864705992,-81.20552460199379L48.052343415467774,-86.97038580965969L43.54254128706631,-87.79675794321003z" style="fill:rgb(60,35,184)"/><path d="M54.882287972301434,-80.11943043479559L48.052343415467774,-86.97038580965969L50.54526864705992,-81.20552460199379z" style="fill:rgb(54,37,179)"/><path d="M-78.07560818379169,-16.566855348577636L-81.22394032259645,-21.991176223720654L-82.9689976330431,-17.860317729860434z" style="fill:rgb(242,131,182)"/><path d="M-84.41436857763465,-13.72471271978232L-126.69842801090017,-2.582486193474866L-126.72860384565004,-2.454763252920737zM103.03048147601768,-106.11606413966302L34.11528257344717,-88.71073445279293L38.89109281635064,-88.3767926259352zM99.1963137970031,-108.20283436364073L97.64041513042127,-109.01782824418683L24.25994313808304,-88.6449402373972zM-84.41436857763465,-13.72471271978232L-82.9689976330431,-17.860317729860434L-125.48701706495247,-6.495857537235082zM101.02702729996977,-107.2439014791088L99.1963137970031,-108.20283436364073L29.232457359196623,-88.79955886212781zM-85.55179590100417,-9.599046738311605L-126.72860384565004,-2.454763252920737L-127.68241887133932,1.5813389028686926z" style="fill:rgb(83,212,212)"/><path d="M54.882287972301434,-80.11943043479559L52.403273336661584,-85.8981931836972L48.052343415467774,-86.97038580965969z" style="fill:rgb(54,37,179)"/><path d="M-79.80137041283388,-12.439284539808556L-84.41436857763465,-13.72471271978232L-81.22842916552057,-8.30625921175925z" style="fill:rgb(244,137,177)"/><path d="M105.1292826343067,-104.80192613143103L38.89109281635064,-88.3767926259352L43.54254128706631,-87.79675794321003z" style="fill:rgb(83,212,212)"/><path d="M59.04457191776185,-78.78919541327565L52.403273336661584,-85.8981931836972L54.882287972301434,-80.11943043479559z" style="fill:rgb(48,39,174)"/><path d="M-79.80137041283388,-12.439284539808556L-82.9689976330431,-17.860317729860434L-84.41436857763465,-13.72471271978232z" style="fill:rgb(244,137,177)"/><path d="M103.03048147601768,-106.11606413966302L101.02702729996977,-107.2439014791088L34.11528257344717,-88.71073445279293zM97.64041513042127,-109.01782824418683L96.76833272362036,-109.47464233213238L96.31190459693582,-109.67292772816043zM-85.55179590100417,-9.599046738311605L-84.41436857763465,-13.72471271978232L-126.72860384565004,-2.454763252920737zM-86.37380466916665,-5.498325103299054L-127.68241887133932,1.5813389028686926L-128.15334995504494,3.5741293565683554zM107.4547327369363,-103.3423627176178L43.54254128706631,-87.79675794321003L48.052343415467774,-86.97038580965969z" style="fill:rgb(83,212,212)"/><path d="M59.04457191776185,-78.78919541327565L56.57833508488623,-84.58146536755739L52.403273336661584,-85.8981931836972z" style="fill:rgb(48,39,174)"/><path d="M-81.22842916552057,-8.30625921175925L-85.55179590100417,-9.599046738311605L-82.34858629204379,-4.182458580703975zM-81.22842916552057,-8.30625921175925L-84.41436857763465,-13.72471271978232L-85.55179590100417,-9.599046738311605z" style="fill:rgb(245,143,172)"/><path d="M63.01532081525274,-77.21703018250024L56.57833508488623,-84.58146536755739L59.04457191776185,-78.78919541327565z" style="fill:rgb(42,41,169)"/><path d="M-86.37380466916665,-5.498325103299054L-128.15334995504494,3.5741293565683554L-128.48582059800145,5.635837362332364zM105.1292826343067,-104.80192613143103L103.03048147601768,-106.11606413966302L38.89109281635064,-88.3767926259352zM-86.37380466916665,-5.498325103299054L-85.55179590100417,-9.599046738311605L-127.68241887133932,1.5813389028686926zM109.71050236898753,-101.66097085653162L48.052343415467774,-86.97038580965969L52.403273336661584,-85.8981931836972z" style="fill:rgb(83,212,212)"/><path d="M63.01532081525274,-77.21703018250024L60.560654463512954,-83.02235431458416L56.57833508488623,-84.58146536755739z" style="fill:rgb(42,41,169)"/><path d="M107.4547327369363,-103.3423627176178L105.1292826343067,-104.80192613143103L43.54254128706631,-87.79675794321003z" style="fill:rgb(83,212,212)"/><path d="M-82.34858629204379,-4.182458580703975L-86.37380466916665,-5.498325103299054L-83.15447559779689,-0.08287833632125913z" style="fill:rgb(246,149,166)"/><path d="M-86.873885984589,-1.4377988580855268L-128.48582059800145,5.635837362332364L-129.1404347649689,9.695285919366992z" style="fill:rgb(83,212,212)"/><path d="M-82.34858629204379,-4.182458580703975L-85.55179590100417,-9.599046738311605L-86.37380466916665,-5.498325103299054z" style="fill:rgb(246,149,166)"/><path d="M103.03048147601768,-106.11606413966302L102.26419061966187,-106.59585714558123L101.02702729996977,-107.2439014791088z" style="fill:rgb(83,212,212)"/><path d="M66.77801708179615,-75.40599886853535L60.560654463512954,-83.02235431458416L63.01532081525274,-77.21703018250024z" style="fill:rgb(37,44,163)"/><path d="M-86.873885984589,-1.4377988580855268L-86.37380466916665,-5.498325103299054L-128.48582059800145,5.635837362332364zM112.15897256559312,-99.83593704859159L52.403273336661584,-85.8981931836972L56.57833508488623,-84.58146536755739zM109.71050236898753,-101.66097085653162L107.4547327369363,-103.3423627176178L48.052343415467774,-86.97038580965969z" style="fill:rgb(83,212,212)"/><path d="M66.77801708179615,-75.40599886853535L64.33366852640079,-81.22383977861641L60.560654463512954,-83.02235431458416z" style="fill:rgb(37,44,163)"/><path d="M-83.15447559779689,-0.08287833632125913L-86.873885984589,-1.4377988580855268L-83.6396719356953,3.977237187013728z" style="fill:rgb(247,155,161)"/><path d="M-87.04648328558332,2.5670639012178857L-129.1404347649689,9.695285919366992L-129.47574442399053,13.700580931480275z" style="fill:rgb(83,212,212)"/><path d="M-83.15447559779689,-0.08287833632125913L-86.37380466916665,-5.498325103299054L-86.873885984589,-1.4377988580855268z" style="fill:rgb(247,155,161)"/><path d="M70.31645531690951,-73.36005464342703L64.33366852640079,-81.22383977861641L66.77801708179615,-75.40599886853535z" style="fill:rgb(32,47,158)"/><path d="M107.4547327369363,-103.3423627176178L107.42520300016726,-103.36437749365204L105.1292826343067,-104.80192613143103zM112.15897256559312,-99.83593704859159L109.71050236898753,-101.66097085653162L52.403273336661584,-85.8981931836972zM114.48006497297028,-97.78606848137771L56.57833508488623,-84.58146536755739L60.560654463512954,-83.02235431458416zM-87.04648328558332,2.5670639012178857L-86.873885984589,-1.4377988580855268L-129.1404347649689,9.695285919366992zM-86.88706702874512,6.500622029878141L-129.47574442399053,13.700580931480275L-129.6480203739102,15.75850500633288z" style="fill:rgb(83,212,212)"/><path d="M70.31645531690951,-73.36005464342703L67.8811076408287,-79.18981104161576L64.33366852640079,-81.22383977861641z" style="fill:rgb(32,47,158)"/><path d="M-83.6396719356953,3.977237187013728L-87.04648328558332,2.5670639012178857L-83.79870640635411,7.982427491093924zM-83.6396719356953,3.977237187013728L-86.873885984589,-1.4377988580855268L-87.04648328558332,2.5670639012178857z" style="fill:rgb(247,161,155)"/><path d="M73.61491740390808,-71.08405117534882L67.8811076408287,-79.18981104161576L70.31645531690951,-73.36005464342703z" style="fill:rgb(28,51,152)"/><path d="M-86.88706702874512,6.500622029878141L-129.6480203739102,15.75850500633288L-129.65372988163278,17.679735679806853zM114.48006497297028,-97.78606848137771L112.15897256559312,-99.83593704859159L56.57833508488623,-84.58146536755739zM116.91019505204412,-95.58364709286137L60.560654463512954,-83.02235431458416L64.33366852640079,-81.22383977861641zM-86.88706702874512,6.500622029878141L-87.04648328558332,2.5670639012178857L-129.47574442399053,13.700580931480275z" style="fill:rgb(83,212,212)"/><path d="M73.61491740390808,-71.08405117534882L71.18719616802306,-76.92505452527288L67.8811076408287,-79.18981104161576z" style="fill:rgb(28,51,152)"/><path d="M-83.79870640635411,7.982427491093924L-86.88706702874512,6.500622029878141L-83.62713633571194,11.917056629516383z" style="fill:rgb(246,166,149)"/><path d="M-86.39219862891945,10.347099119804847L-129.65372988163278,17.679735679806853L-129.66541151371737,21.61517791366845z" style="fill:rgb(83,212,212)"/><path d="M-83.79870640635411,7.982427491093924L-87.04648328558332,2.5670639012178857L-86.88706702874512,6.500622029878141z" style="fill:rgb(246,166,149)"/><path d="M76.65808339025828,-68.58384327600193L71.18719616802306,-76.92505452527288L73.61491740390808,-71.08405117534882z" style="fill:rgb(24,55,146)"/><path d="M116.91019505204412,-95.58364709286137L114.48006497297028,-97.78606848137771L60.560654463512954,-83.02235431458416zM119.19014909373725,-93.16598793664856L64.33366852640079,-81.22383977861641L67.8811076408287,-79.18981104161576zM114.48006497297028,-97.78606848137771L112.22632497215825,-99.78573174314485L112.15897256559312,-99.83593704859159zM-86.39219862891945,10.347099119804847L-86.88706702874512,6.500622029878141L-129.65372988163278,17.679735679806853zM-85.55968933187933,14.09067464925076L-129.66541151371737,21.61517791366845L-129.66579215603883,21.74070067829918z" style="fill:rgb(83,212,212)"/><path d="M76.65808339025828,-68.58384327600193L74.23655662885659,-74.43535763268417L71.18719616802306,-76.92505452527288z" style="fill:rgb(24,55,146)"/><path d="M-83.62713633571194,11.917056629516383L-86.39219862891945,10.347099119804847L-83.1216123310377,15.765357238374008z" style="fill:rgb(245,172,143)"/><path d="M-85.55968933187933,14.09067464925076L-129.66579215603883,21.74070067829918L-129.36199516009967,25.452731786481515z" style="fill:rgb(83,212,212)"/><path d="M-83.62713633571194,11.917056629516383L-86.88706702874512,6.500622029878141L-86.39219862891945,10.347099119804847z" style="fill:rgb(245,172,143)"/><path d="M119.19014909373725,-93.16598793664856L116.91019505204412,-95.58364709286137L64.33366852640079,-81.22383977861641z" style="fill:rgb(83,212,212)"/><path d="M79.43126744977288,-65.86622670662481L74.23655662885659,-74.43535763268417L76.65808339025828,-68.58384327600193z" style="fill:rgb(20,59,140)"/><path d="M121.4616232581725,-90.58076260638428L67.8811076408287,-79.18981104161576L71.18719616802306,-76.92505452527288zM116.91019505204412,-95.58364709286137L116.6430279110471,-95.86693568803233L114.48006497297028,-97.78606848137771zM-85.55968933187933,14.09067464925076L-86.39219862891945,10.347099119804847L-129.66541151371737,21.61517791366845z" style="fill:rgb(83,212,212)"/><path d="M79.43126744977288,-65.86622670662481L77.01444810555803,-71.7274510786405L74.23655662885659,-74.43535763268417z" style="fill:rgb(20,59,140)"/><path d="M-84.3885510386947,17.715537615711455L-129.36199516009967,25.452731786481515L-129.1847518896869,27.61822470425343z" style="fill:rgb(83,212,212)"/><path d="M-83.1216123310377,15.765357238374008L-85.55968933187933,14.09067464925076L-82.280006571007,19.51151055508711z" style="fill:rgb(244,177,137)"/><path d="M121.4616232581725,-90.58076260638428L119.19014909373725,-93.16598793664856L67.8811076408287,-79.18981104161576z" style="fill:rgb(83,212,212)"/><path d="M-83.1216123310377,15.765357238374008L-86.39219862891945,10.347099119804847L-85.55968933187933,14.09067464925076z" style="fill:rgb(244,177,137)"/><path d="M81.92044190255433,-62.93902902652232L77.01444810555803,-71.7274510786405L79.43126744977288,-65.86622670662481z" style="fill:rgb(17,63,135)"/><path d="M-84.3885510386947,17.715537615711455L-129.1847518896869,27.61822470425343L-128.90967017201908,29.21990515988324zM123.62804981847421,-87.81147698524714L71.18719616802306,-76.92505452527288L74.23655662885659,-74.43535763268417zM-84.3885510386947,17.715537615711455L-85.55968933187933,14.09067464925076L-129.36199516009967,25.452731786481515z" style="fill:rgb(83,212,212)"/><path d="M81.92044190255433,-62.93902902652232L79.50678938476082,-68.80909907427986L77.01444810555803,-71.7274510786405z" style="fill:rgb(17,63,135)"/><path d="M123.62804981847421,-87.81147698524714L121.4616232581725,-90.58076260638428L71.18719616802306,-76.92505452527288z" style="fill:rgb(83,212,212)"/><path d="M-82.280006571007,19.51151055508711L-84.3885510386947,17.715537615711455L-81.10143869841468,23.139713035479417z" style="fill:rgb(242,182,131)"/><path d="M-82.87913544439317,21.20591779461812L-128.90967017201908,29.21990515988324L-128.27889554353845,32.892880603565z" style="fill:rgb(83,212,212)"/><path d="M-82.280006571007,19.51151055508711L-85.55968933187933,14.09067464925076L-84.3885510386947,17.715537615711455z" style="fill:rgb(242,182,131)"/><path d="M84.11233665285025,-59.8110600544701L79.50678938476082,-68.80909907427986L81.92044190255433,-62.93902902652232z" style="fill:rgb(14,67,129)"/><path d="M121.4616232581725,-90.58076260638428L120.65126842662481,-91.61661435160934L119.19014909373725,-93.16598793664856zM125.63007315574012,-84.85265333542414L74.23655662885659,-74.43535763268417L77.01444810555803,-71.7274510786405zM-82.87913544439317,21.20591779461812L-84.3885510386947,17.715537615711455L-128.90967017201908,29.21990515988324zM-81.03317426037546,24.546199620830997L-128.27889554353845,32.892880603565L-128.1974823885769,33.36689320662776zM125.63007315574012,-84.85265333542414L123.62804981847421,-87.81147698524714L74.23655662885659,-74.43535763268417z" style="fill:rgb(83,212,212)"/><path d="M84.11233665285025,-59.8110600544701L81.70026093940822,-65.68905206628396L79.50678938476082,-68.80909907427986z" style="fill:rgb(14,67,129)"/><path d="M-81.10143869841468,23.139713035479417L-82.87913544439317,21.20591779461812L-79.58631269791002,26.634197915634704z" style="fill:rgb(240,187,125)"/><path d="M-81.03317426037546,24.546199620830997L-128.1974823885769,33.36689320662776L-127.37634540188597,36.43143146015998z" style="fill:rgb(83,212,212)"/><path d="M-81.10143869841468,23.139713035479417L-84.3885510386947,17.715537615711455L-82.87913544439317,21.20591779461812z" style="fill:rgb(240,187,125)"/><path d="M85.9945477723917,-56.49219689407517L81.70026093940822,-65.68905206628396L84.11233665285025,-59.8110600544701z" style="fill:rgb(12,72,123)"/><path d="M127.56560863977603,-81.74214361680124L77.01444810555803,-71.7274510786405L79.50678938476082,-68.80909907427986zM-81.03317426037546,24.546199620830997L-82.87913544439317,21.20591779461812L-128.27889554353845,32.892880603565zM127.56560863977603,-81.74214361680124L125.63007315574012,-84.85265333542414L77.01444810555803,-71.7274510786405zM-78.85385718267315,27.721025171788398L-127.37634540188597,36.43143146015998L-126.69823627730267,38.96212619581192z" style="fill:rgb(83,212,212)"/><path d="M85.9945477723917,-56.49219689407517L83.58240691811365,-62.37713054599635L81.70026093940822,-65.68905206628396z" style="fill:rgb(12,72,123)"/><path d="M125.63007315574012,-84.85265333542414L124.22768705823444,-87.0449896453834L123.62804981847421,-87.81147698524714z" style="fill:rgb(83,212,212)"/><path d="M-79.58631269791002,26.634197915634704L-81.03317426037546,24.546199620830997L-77.73643256953986,29.979354011036005zM-79.58631269791002,26.634197915634704L-82.87913544439317,21.20591779461812L-81.03317426037546,24.546199620830997z" style="fill:rgb(237,191,119)"/><path d="M87.55562651468213,-52.99335191995407L83.58240691811365,-62.37713054599635L85.9945477723917,-56.49219689407517z" style="fill:rgb(10,77,117)"/><path d="M-78.85385718267315,27.721025171788398L-126.69823627730267,38.96212619581192L-126.36392590599377,39.86080917869395zM129.2523626537041,-78.44299921367211L79.50678938476082,-68.80909907427986L81.70026093940822,-65.68905206628396zM-78.85385718267315,27.721025171788398L-81.03317426037546,24.546199620830997L-127.37634540188597,36.43143146015998zM129.2523626537041,-78.44299921367211L127.56560863977603,-81.74214361680124L79.50678938476082,-68.80909907427986zM-76.34587180468024,30.71532579178562L-126.36392590599377,39.86080917869395L-125.14424646679329,43.139618632751755z" style="fill:rgb(83,212,212)"/><path d="M87.55562651468213,-52.99335191995407L85.1417571718413,-58.8841949293738L83.58240691811365,-62.37713054599635z" style="fill:rgb(10,77,117)"/><path d="M127.56560863977603,-81.74214361680124L127.34987977586188,-82.1640700775926L125.63007315574012,-84.85265333542414zM130.78275479423795,-74.99311081573917L81.70026093940822,-65.68905206628396L83.58240691811365,-62.37713054599635zM-76.34587180468024,30.71532579178562L-78.85385718267315,27.721025171788398L-126.36392590599377,39.86080917869395zM-73.51545436984155,33.51446427663321L-125.14424646679329,43.139618632751755L-124.6831845281957,44.379052210497015zM130.78275479423795,-74.99311081573917L129.2523626537041,-78.44299921367211L81.70026093940822,-65.68905206628396zM-73.51545436984155,33.51446427663321L-124.6831845281957,44.379052210497015L-123.76733079281394,46.264302270363494zM132.18138136156045,-71.41270583112878L83.58240691811365,-62.37713054599635L85.1417571718413,-58.8841949293738zM-73.51545436984155,33.51446427663321L-76.34587180468024,30.71532579178562L-125.14424646679329,43.139618632751755zM-70.37049027153017,36.10429486764127L-123.76733079281394,46.264302270363494L-122.32128875064016,49.24091924760077zM132.18138136156045,-71.41270583112878L130.78275479423795,-74.99311081573917L83.58240691811365,-62.37713054599635zM130.78275479423795,-74.99311081573917L129.99647755072507,-76.98761366773229L129.2523626537041,-78.44299921367211zM133.25418971500943,-67.66454233925302L85.1417571718413,-58.8841949293738L86.36788522495594,-55.222119779778076z" style="fill:rgb(83,212,212)"/><path d="M-111.99746258371476,64.64264536987325L-119.10050617074397,54.57739841942385L-115.56490420070733,59.90357912011306z" style="fill:rgb(24,55,146)"/><path d="M-66.92040637223577,38.47131642901467L-122.32128875064016,49.24091924760077L-122.150469767889,49.592525428444915zM-70.37049027153017,36.10429486764127L-73.51545436984155,33.51446427663321L-123.76733079281394,46.264302270363494zM-66.92040637223577,38.47131642901467L-122.150469767889,49.592525428444915L-120.66638643757521,52.018132554879855zM133.25418971500943,-67.66454233925302L132.18138136156045,-71.41270583112878L85.1417571718413,-58.8841949293738zM132.18138136156045,-71.41270583112878L132.14745815909137,-71.53125714911985L130.78275479423795,-74.99311081573917z" style="fill:rgb(83,212,212)"/><path d="M-111.99746258371476,64.64264536987325L-115.53602716236456,59.30853926833179L-119.10050617074397,54.57739841942385z" style="fill:rgb(24,55,146)"/><path d="M134.1566246546891,-63.80523273207859L86.36788522495594,-55.222119779778076L87.25153690016452,-51.40380859179631zM-66.92040637223577,38.47131642901467L-70.37049027153017,36.10429486764127L-122.32128875064016,49.24091924760077z" style="fill:rgb(83,212,212)"/><path d="M134.33389719209367,-65.5060242758255L132.14745815909137,-71.53125714911985L133.78426879134136,-65.8125332858882zM134.33389719209367,-65.5060242758255L133.78426879134136,-65.8125332858882L135.97554216048286,-59.780559198020995z" style="fill:rgb(246,166,149)"/><path d="M-63.17634784777286,40.60272323683884L-120.66638643757521,52.018132554879855L-119.10050617074397,54.57739841942385zM-63.17634784777286,40.60272323683884L-119.10050617074397,54.57739841942385L-119.0511109029066,54.642970845490574zM134.1566246546891,-63.80523273207859L133.25418971500943,-67.66454233925302L86.36788522495594,-55.222119779778076zM134.8901478547211,-59.850852360019886L87.25153690016452,-51.40380859179631L87.78478759179383,-47.443212983000855zM-63.17634784777286,40.60272323683884L-66.92040637223577,38.47131642901467L-120.66638643757521,52.018132554879855zM-59.15109389255676,42.486539771794604L-119.0511109029066,54.642970845490574L-117.24372105188321,57.041912212115406zM134.8901478547211,-59.850852360019886L134.1566246546891,-63.80523273207859L87.25153690016452,-51.40380859179631zM134.1566246546891,-63.80523273207859L133.78426879134136,-65.8125332858882L133.25418971500943,-67.66454233925302z" style="fill:rgb(83,212,212)"/><path d="M135.97554216048286,-59.780559198020995L133.78426879134136,-65.8125332858882L134.8901478547211,-59.850852360019886zM135.97554216048286,-59.780559198020995L134.8901478547211,-59.850852360019886L137.08899028440484,-53.81403389448662z" style="fill:rgb(247,161,155)"/><path d="M-54.85908314059574,44.11169356776478L-117.24372105188321,57.041912212115406L-115.55822096549865,59.27907372982475zM-59.15109389255676,42.486539771794604L-63.17634784777286,40.60272323683884L-119.0511109029066,54.642970845490574zM135.26009736988885,-55.76659476435618L87.78478759179383,-47.443212983000855L87.96108583805523,-43.35524560148489zM-50.31631671392384,45.46820143893346L-115.55822096549865,59.27907372982475L-115.53602716236456,59.30853926833179zM135.26009736988885,-55.76659476435618L134.8901478547211,-59.850852360019886L87.78478759179383,-47.443212983000855zM-50.31631671392384,45.46820143893346L-115.53602716236456,59.30853926833179L-113.74386490148962,61.27780249910674zM-54.85908314059574,44.11169356776478L-59.15109389255676,42.486539771794604L-117.24372105188321,57.041912212115406zM135.45077137489062,-51.61801384167399L87.96108583805523,-43.35524560148489L87.77535553088167,-39.15576200676426z" style="fill:rgb(83,212,212)"/><path d="M137.08899028440484,-53.81403389448662L134.8901478547211,-59.850852360019886L135.45021989179475,-53.66753933061458zM137.08899028440484,-53.81403389448662L135.45021989179475,-53.66753933061458L137.65944261628877,-47.62784220114294z" style="fill:rgb(247,155,161)"/><path d="M-45.54048199497404,46.54716474591216L-113.74386490148962,61.27780249910674L-112.0884332951002,63.0967893227839zM135.45077137489062,-51.61801384167399L135.26009736988885,-55.76659476435618L87.96108583805523,-43.35524560148489zM-50.31631671392384,45.46820143893346L-54.85908314059574,44.11169356776478L-115.55822096549865,59.27907372982475zM135.45188717594618,-47.419742540903634L87.77535553088167,-39.15576200676426L87.22408797158711,-34.86152048979114zM-40.55072595734796,47.340943202682894L-112.0884332951002,63.0967893227839L-110.60489760620558,64.72693897844054zM-45.54048199497404,46.54716474591216L-50.31631671392384,45.46820143893346L-113.74386490148962,61.27780249910674zM135.45188717594618,-47.419742540903634L135.45077137489062,-51.61801384167399L87.77535553088167,-39.15576200676426zM-35.36770702752368,47.84322694689944L-110.60489760620558,64.72693897844054L-109.30153517651048,66.1591116402778zM135.45077137489062,-51.61801384167399L135.45021989179475,-53.66753933061458L135.26009736988885,-55.76659476435618z" style="fill:rgb(83,212,212)"/><path d="M137.65944261628877,-47.62784220114294L135.45021989179475,-53.66753933061458L135.4519322725648,-47.2858462803597zM137.65944261628877,-47.62784220114294L135.4519322725648,-47.2858462803597L137.67440958922947,-41.24528876013584z" style="fill:rgb(246,149,166)"/><path d="M135.0939129429893,-43.14555038516895L87.22408797158711,-34.86152048979114L86.30549357102177,-30.49012787604534zM-30.01341916228092,48.04912586401591L-109.30153517651048,66.1591116402778L-108.18571085391288,67.38519048900369zM-40.55072595734796,47.340943202682894L-45.54048199497404,46.54716474591216L-112.0884332951002,63.0967893227839zM135.0939129429893,-43.14555038516895L135.45188717594618,-47.419742540903634L87.22408797158711,-34.86152048979114zM-24.511159675197124,47.95521147386618L-108.18571085391288,67.38519048900369L-107.26382637174936,68.39817266312018zM134.5665292605593,-38.862996538576795L86.30549357102177,-30.49012787604534L85.01953310505249,-26.05993126315645zM-35.36770702752368,47.84322694689944L-40.55072595734796,47.340943202682894L-110.60489760620558,64.72693897844054zM-18.885375608966417,47.55964648972479L-107.26382637174936,68.39817266312018L-106.54116563406588,69.19222652563292z" style="fill:rgb(83,212,212)"/><path d="M137.67440958922947,-41.24528876013584L135.4519322725648,-47.2858462803597L134.88508985488622,-40.73083861230989zM137.67440958922947,-41.24528876013584L134.88508985488622,-40.73083861230989L137.12374554461766,-34.69148803471127z" style="fill:rgb(245,143,172)"/><path d="M-13.161488428639972,46.86216971876053L-106.54116563406588,69.19222652563292L-106.0219552459897,69.76274338585226zM134.5665292605593,-38.862996538576795L135.0939129429893,-43.14555038516895L86.30549357102177,-30.49012787604534zM135.0939129429893,-43.14555038516895L135.4519322725648,-47.2858462803597L135.45188717594618,-47.419742540903634zM-30.01341916228092,48.04912586401591L-35.36770702752368,47.84322694689944L-109.30153517651048,66.1591116402778zM-7.3657945291992055,45.86414189401786L-106.0219552459897,69.76274338585226L-105.70923056686712,70.10639162551468zM133.83640709236295,-34.58174943662333L85.01953310505249,-26.05993126315645L83.36795469254233,-21.589983651003053zM-1.5252875477146215,44.568653421934016L-105.70923056686712,70.10639162551468L-105.60476857997483,70.22115465292461zM-24.511159675197124,47.95521147386618L-30.01341916228092,48.04912586401591L-108.18571085391288,67.38519048900369zM133.83640709236295,-34.58174943662333L134.5665292605593,-38.862996538576795L85.01953310505249,-26.05993126315645zM132.79787368559104,-30.293185554992238L83.36795469254233,-21.589983651003053L81.35440626109839,-17.099926371959334zM134.5665292605593,-38.862996538576795L134.88508985488622,-40.73083861230989L135.0939129429893,-43.14555038516895z" style="fill:rgb(83,212,212)"/><path d="M137.12374554461766,-34.69148803471127L134.88508985488622,-40.73083861230989L133.74220689789942,-34.02944157931087zM137.12374554461766,-34.69148803471127L133.74220689789942,-34.02944157931087L135.99999694975625,-27.99337973635683z" style="fill:rgb(244,137,177)"/><path d="M-18.885375608966417,47.55964648972479L-24.511159675197124,47.95521147386618L-107.26382637174936,68.39817266312018zM-13.161488428639972,46.86216971876053L-18.885375608966417,47.55964648972479L-106.54116563406588,69.19222652563292zM132.79787368559104,-30.293185554992238L133.83640709236295,-34.58174943662333L83.36795469254233,-21.589983651003053zM131.6357701212516,-26.06333737711268L81.35440626109839,-17.099926371959334L78.98446253883185,-12.609861414116795zM-7.3657945291992055,45.86414189401786L-13.161488428639972,46.86216971876053L-106.0219552459897,69.76274338585226zM-1.5252875477146215,44.568653421934016L-7.3657945291992055,45.86414189401786L-105.70923056686712,70.10639162551468z" style="fill:rgb(83,212,212)"/><path d="M135.99999694975625,-27.99337973635683L132.01864608048646,-27.210227615829144L134.2985399446467,-21.179554132869384z" style="fill:rgb(242,131,182)"/><path d="M130.24005438780827,-21.88240865373847L78.98446253883185,-12.609861414116795L76.2656429381376,-8.140272830074618z" style="fill:rgb(83,212,212)"/><path d="M135.99999694975625,-27.99337973635683L133.74220689789942,-34.02944157931087L132.01864608048646,-27.210227615829144z" style="fill:rgb(242,131,182)"/><path d="M131.6357701212516,-26.06333737711268L132.79787368559104,-30.293185554992238L81.35440626109839,-17.099926371959334z" style="fill:rgb(83,212,212)"/><path d="M-37.51270244214987,146.65372615991967L-115.53602716236456,59.30853926833179L-111.99746258371476,64.64264536987325z" style="fill:rgb(28,51,152)"/><path d="M132.79787368559104,-30.293185554992238L133.74220689789942,-34.02944157931087L133.83640709236295,-34.58174943662333zM128.66835095445512,-17.783345842477793L76.2656429381376,-8.140272830074618L73.20742290171285,-3.711872235303351zM130.24005438780827,-21.88240865373847L131.6357701212516,-26.06333737711268L78.98446253883185,-12.609861414116795zM131.6357701212516,-26.06333737711268L132.01864608048646,-27.210227615829144L132.79787368559104,-30.293185554992238z" style="fill:rgb(83,212,212)"/><path d="M134.2985399446467,-21.179554132869384L129.71291575294134,-20.303358841000716L132.0178749739726,-14.280158622920554zM134.2985399446467,-21.179554132869384L132.01864608048646,-27.210227615829144L129.71291575294134,-20.303358841000716z" style="fill:rgb(240,125,187)"/><path d="M127.0211416751359,-13.809469839577428L73.20742290171285,-3.711872235303351L69.82129304925118,0.654465443765508zM128.66835095445512,-17.783345842477793L130.24005438780827,-21.88240865373847L76.2656429381376,-8.140272830074618zM125.14103680953828,-9.938278992673101L69.82129304925118,0.654465443765508L66.1205824412624,4.937983936750243zM127.0211416751359,-13.809469839577428L128.66835095445512,-17.783345842477793L73.20742290171285,-3.711872235303351zM123.30937337287098,-6.257531344967565L66.1205824412624,4.937983936750243L62.12058950305455,9.11802834172283z" style="fill:rgb(83,212,212)"/><path d="M132.0178749739726,-14.280158622920554L126.8267253750358,-13.340462025077763L129.15968077193264,-7.3267946807274305zM132.0178749739726,-14.280158622920554L129.71291575294134,-20.303358841000716L126.8267253750358,-13.340462025077763z" style="fill:rgb(237,120,191)"/><path d="M128.66835095445512,-17.783345842477793L129.71291575294134,-20.303358841000716L130.24005438780827,-21.88240865373847zM125.14103680953828,-9.938278992673101L127.0211416751359,-13.809469839577428L69.82129304925118,0.654465443765508zM121.2652014370603,-2.7175823158630728L62.12058950305455,9.11802834172283L57.83838855918777,13.174292874632501zM119.36238426955344,0.5775844946311479L57.83838855918777,13.174292874632501L53.29283614609472,17.08691067857978zM123.30937337287098,-6.257531344967565L125.14103680953828,-9.938278992673101L66.1205824412624,4.937983936750243z" style="fill:rgb(83,212,212)"/><path d="M129.15968077193264,-7.3267946807274305L123.36529472808955,-6.354379298399966L125.72912066758457,-0.3522566449461725z" style="fill:rgb(234,114,195)"/><path d="M117.319112792691,3.6843191907292563L53.29283614609472,17.08691067857978L48.50433556078626,20.83671227218558z" style="fill:rgb(83,212,212)"/><path d="M129.15968077193264,-7.3267946807274305L126.8267253750358,-13.340462025077763L123.36529472808955,-6.354379298399966z" style="fill:rgb(234,114,195)"/><path d="M125.14103680953828,-9.938278992673101L126.8267253750358,-13.340462025077763L127.0211416751359,-13.809469839577428zM121.2652014370603,-2.7175823158630728L123.30937337287098,-6.257531344967565L62.12058950305455,9.11802834172283zM115.4582213138037,6.508834602304416L48.50433556078626,20.83671227218558L43.49488339528717,24.40520151603649zM113.79330118333165,9.035937783930512L43.49488339528717,24.40520151603649L38.28780825381686,27.774844323978638zM108.20083126759896,17.524421772312873L4.332541022989409,42.980435012245785L-1.5252875477146215,44.568653421934016zM112.33271565950683,11.252892396250553L38.28780825381686,27.774844323978638L32.90766576681348,30.929135677253782zM119.36238426955344,0.5775844946311479L121.2652014370603,-2.7175823158630728L57.83838855918777,13.174292874632501zM108.31737014809507,17.347551902786456L10.17987705975769,41.10589150957455L4.332541022989409,42.980435012245785zM111.0838726961618,13.14843546811222L32.90766576681348,30.929135677253782L27.38002188218834,33.85274534906354zM108.66632264418224,16.81788105270858L15.988768876081316,38.95305634400451L10.17987705975769,41.10589150957455zM110.05318919183362,14.71285298856519L27.38002188218834,33.85274534906354L21.73134239864889,36.53160859025733zM109.24593490475469,15.93811749070636L21.73134239864889,36.53160859025733L15.988768876081316,38.95305634400451z" style="fill:rgb(83,212,212)"/><path d="M125.72912066758457,-0.3522566449461725L119.33735091921403,0.6209467564810477L121.7348418477828,6.609576212942567z" style="fill:rgb(230,108,199)"/><path d="M123.30937337287098,-6.257531344967565L123.36529472808955,-6.354379298399966L125.14103680953828,-9.938278992673101z" style="fill:rgb(83,212,212)"/><path d="M125.72912066758457,-0.3522566449461725L123.36529472808955,-6.354379298399966L119.33735091921403,0.6209467564810477z" style="fill:rgb(230,108,199)"/><path d="M117.319112792691,3.6843191907292563L119.36238426955344,0.5775844946311479L53.29283614609472,17.08691067857978zM115.4582213138037,6.508834602304416L117.319112792691,3.6843191907292563L48.50433556078626,20.83671227218558zM113.79330118333165,9.035937783930512L115.4582213138037,6.508834602304416L43.49488339528717,24.40520151603649zM112.33271565950683,11.252892396250553L113.79330118333165,9.035937783930512L38.28780825381686,27.774844323978638zM111.0838726961618,13.14843546811222L112.33271565950683,11.252892396250553L32.90766576681348,30.929135677253782zM117.319112792691,3.6843191907292563L119.33735091921403,0.6209467564810477L119.36238426955344,0.5775844946311479zM110.05318919183362,14.71285298856519L111.0838726961618,13.14843546811222L27.38002188218834,33.85274534906354zM109.24593490475469,15.93811749070636L110.05318919183362,14.71285298856519L21.73134239864889,36.53160859025733zM108.20083126759896,17.524421772312873L108.31737014809507,17.347551902786456L4.332541022989409,42.980435012245785zM108.66632264418224,16.81788105270858L109.24593490475469,15.93811749070636L15.988768876081316,38.95305634400451zM108.31737014809507,17.347551902786456L108.66632264418224,16.81788105270858L10.17987705975769,41.10589150957455z" style="fill:rgb(83,212,212)"/><path d="M-37.51270244214987,146.65372615991967L-41.006352117322784,141.20295155418967L-115.53602716236456,59.30853926833179z" style="fill:rgb(28,51,152)"/><path d="M27.634242924695055,129.88388292324262L108.20083126759896,17.524421772312873L-105.60476857997483,70.22115465292461z" style="fill:rgb(83,212,212)"/><path d="M121.7348418477828,6.609576212942567L119.33735091921403,0.6209467564810477L38.490241740310935,123.33416175773974z" style="fill:rgb(226,102,203)"/><path d="M27.634242924695055,129.88388292324262L-105.60476857997483,70.22115465292461L-41.006352117322784,141.20295155418967z" style="fill:rgb(83,212,212)"/><path d="M121.7348418477828,6.609576212942567L38.490241740310935,123.33416175773974L41.562020605478885,129.0027645609355z" style="fill:rgb(226,102,203)"/><path d="M-32.834986313335065,148.5927523222644L-41.006352117322784,141.20295155418967L-37.51270244214987,146.65372615991967z" style="fill:rgb(57,36,182)"/><path d="M27.634242924695055,129.88388292324262L38.490241740310935,123.33416175773974L108.20083126759896,17.524421772312873z" style="fill:rgb(83,212,212)"/><path d="M-27.07384233802224,148.3714104955907L-36.3131154377305,143.13343239542257L-32.834986313335065,148.5927523222644z" style="fill:rgb(102,32,209)"/><path d="M-32.834986313335065,148.5927523222644L-36.3131154377305,143.13343239542257L-41.006352117322784,141.20295155418967z" style="fill:rgb(57,36,182)"/><path d="M-27.07384233802224,148.3714104955907L-30.5248526715793,142.89788371441125L-36.3131154377305,143.13343239542257z" style="fill:rgb(102,32,209)"/><path d="M30.77558032657965,135.51659558560394L-30.5248526715793,142.89788371441125L-27.07384233802224,148.3714104955907z" style="fill:rgb(127,37,217)"/><path d="M27.634242924695055,129.88388292324262L-41.006352117322784,141.20295155418967L-36.3131154377305,143.13343239542257zM27.634242924695055,129.88388292324262L-36.3131154377305,143.13343239542257L-30.5248526715793,142.89788371441125z" style="fill:rgb(83,212,212)"/><path d="M30.77558032657965,135.51659558560394L27.634242924695055,129.88388292324262L-30.5248526715793,142.89788371441125z" style="fill:rgb(127,37,217)"/><path d="M41.562020605478885,129.0027645609355L33.61177396757159,127.46817711704442L36.7178987502936,133.1189447640343z" style="fill:rgb(197,72,218)"/><path d="M36.7178987502936,133.1189447640343L27.634242924695055,129.88388292324262L30.77558032657965,135.51659558560394z" style="fill:rgb(152,45,222)"/><path d="M41.562020605478885,129.0027645609355L38.490241740310935,123.33416175773974L33.61177396757159,127.46817711704442z" style="fill:rgb(197,72,218)"/><path d="M36.7178987502936,133.1189447640343L33.61177396757159,127.46817711704442L27.634242924695055,129.88388292324262z" style="fill:rgb(152,45,222)"/><path d="M27.634242924695055,129.88388292324262L33.61177396757159,127.46817711704442L38.490241740310935,123.33416175773974z" style="fill:rgb(83,212,212)"/></svg>
