<?xml version="1.0" encoding="UTF-8"?>
<!-- Generated by jsxcad -->
<!DOCTYPE svg PUBLIC "-//W3C//DTD SVG 1.1 Tiny//EN" "http://www.w3.org/Graphics/SVG/1.1/DTD/svg11-tiny.dtd">
<svg viewBox="-250 -250 500 500" width="500" height="500" xmlns="http://www.w3.org/2000/svg"><path d="M-28.853417620124596,-102.04706377797238L-35.55165373851048,-98.82992535718796L-42.125151826326174,-95.3673989990098zM-28.853417620124596,-102.04706377797238L-42.125151826326174,-95.3673989990098L-54.820615465850835,-87.74712776056937zM-42.125151826326174,-95.3673989990098L-48.55450748155418,-91.66959290091296L-54.820615465850835,-87.74712776056937zM-15.161465386541384,-107.70696483064313L-22.050059744131815,-105.0091297910755L-28.853417620124596,-102.04706377797238zM-1.2095513854066084,-112.27552981653639L-28.853417620124596,-102.04706377797238L-54.820615465850835,-87.74712776056937zM-1.2095513854066084,-112.27552981653639L-15.161465386541384,-107.70696483064313L-28.853417620124596,-102.04706377797238zM-54.820615465850835,-87.74712776056937L-60.90456555848004,-83.61108408616118L-66.78772158521647,-79.27301638590465zM-1.2095513854066084,-112.27552981653639L-8.207823217618833,-110.13184356551355L-15.161465386541384,-107.70696483064313zM-54.820615465850835,-87.74712776056937L-66.78772158521647,-79.27301638590465L-77.87829895742712,-70.03971873022033zM-66.78772158521647,-79.27301638590465L-72.45167658869077,-74.74504663233816L-77.87829895742712,-70.03971873022033zM-1.2095513854066084,-112.27552981653639L-54.820615465850835,-87.74712776056937L-96.85861230095557,-49.715950721513686zM19.844427420376128,-116.94464280042429L12.837718836663942,-115.68889484857951L5.812632008491642,-114.13029063516068zM-54.820615465850835,-87.74712776056937L-77.87829895742712,-70.03971873022033L-96.85861230095557,-49.715950721513686zM-77.87829895742712,-70.03971873022033L-83.04973289010437,-65.17019372386419L-87.94839951989898,-60.150133836369776zM-77.87829895742712,-70.03971873022033L-87.94839951989898,-60.150133836369776L-96.85861230095557,-49.715950721513686zM33.71595154076655,-118.52361139706433L26.811131750492642,-117.89140608293395L19.844427420376128,-116.94464280042429zM5.812632008491642,-114.13029063516068L-1.2095513854066084,-112.27552981653639L-1.2434772483039163,-86.22311193869135zM-87.94839951989898,-60.150133836369776L-92.5569807071555,-54.9937900364869L-96.85861230095557,-49.715950721513686zM19.844427420376128,-116.94464280042429L5.812632008491642,-114.13029063516068L-1.2434772483039163,-86.22311193869135zM47.251018544941516,-118.82535989651514L33.71595154076655,-118.52361139706433L19.844427420376128,-116.94464280042429zM47.251018544941516,-118.82535989651514L40.536737174066026,-118.83635902721328L33.71595154076655,-118.52361139706433zM-29.125052442314345,-74.78054105364372L-24.646220012038746,-77.14132793737521L-1.2095513854066084,-112.27552981653639zM-24.646220012038746,-77.14132793737521L-20.080125434901447,-79.32982629347106L-1.2095513854066084,-112.27552981653639zM-33.50198229456888,-72.25514364834432L-29.125052442314345,-74.78054105364372L-1.2095513854066084,-112.27552981653639zM-20.080125434901447,-79.32982629347106L-15.441640631606392,-81.33880464294532L-1.2095513854066084,-112.27552981653639zM-37.76264457880954,-69.5732295066043L-33.50198229456888,-72.25514364834432L-1.2095513854066084,-112.27552981653639zM-15.441640631606392,-81.33880464294532L-10.74582419574797,-83.16147806316317L-1.2095513854066084,-112.27552981653639zM-41.89290525962765,-66.74333903852349L-37.76264457880954,-69.5732295066043L-1.2095513854066084,-112.27552981653639zM-10.74582419574797,-83.16147806316317L-6.007949217787216,-84.79153198321052L-1.2095513854066084,-112.27552981653639zM-45.87895327560904,-63.77441119575934L-41.89290525962765,-66.74333903852349L-1.2095513854066084,-112.27552981653639zM-96.85861230095557,-49.715950721513686L-100.83669018386854,-44.33204426211254L-104.47514338618984,-38.85807936570543zM47.251018544941516,-118.82535989651514L19.844427420376128,-116.94464280042429L-1.2434772483039163,-86.22311193869135zM-6.007949217787216,-84.79153198321052L-1.2434772483039163,-86.22311193869135L-1.2095513854066084,-112.27552981653639zM-49.70721457429081,-60.67584454715162L-45.87895327560904,-63.77441119575934L-1.2095513854066084,-112.27552981653639zM-53.36452754109995,-57.457376964201146L-49.70721457429081,-60.67584454715162L-1.2095513854066084,-112.27552981653639zM-56.83802095383048,-54.12921385956262L-53.36452754109995,-57.457376964201146L-1.2095513854066084,-112.27552981653639zM-1.2095513854066084,-112.27552981653639L-96.85861230095557,-49.715950721513686L-118.34016403792282,-5.098010262960923z" style="fill:rgb(83,212,212)"/><path d="M-22.064940262624642,-71.99133885511893L-29.125052442314345,-74.78054105364372L-26.523002265927087,-69.6411211021463z" style="fill:rgb(168,53,222)"/><path d="M-17.5194324292772,-74.16888970197112L-24.646220012038746,-77.14132793737521L-22.064940262624642,-71.99133885511893z" style="fill:rgb(160,49,222)"/><path d="M-26.523002265927087,-69.6411211021463L-33.50198229456888,-72.25514364834432L-30.879030756303628,-67.12588304612581z" style="fill:rgb(175,57,222)"/><path d="M-12.901300053095126,-76.1665713119257L-20.080125434901447,-79.32982629347106L-17.5194324292772,-74.16888970197112z" style="fill:rgb(153,46,222)"/><path d="M-96.85861230095557,-49.715950721513686L-104.47514338618984,-38.85807936570543L-110.67113573689748,-27.707151608864596z" style="fill:rgb(83,212,212)"/><path d="M-30.879030756303628,-67.12588304612581L-37.76264457880954,-69.5732295066043L-35.118717734168214,-64.45370670180925z" style="fill:rgb(181,61,221)"/><path d="M-8.225548164089792,-77.97763000590146L-15.441640631606392,-81.33880464294532L-12.901300053095126,-76.1665713119257z" style="fill:rgb(146,43,221)"/><path d="M-35.118717734168214,-64.45370670180925L-41.89290525962765,-66.74333903852349L-39.22799418354644,-61.633096137831565z" style="fill:rgb(188,65,220)"/><path d="M-3.507399913484976,-79.59577574609709L-10.74582419574797,-83.16147806316317L-8.225548164089792,-77.97763000590146z" style="fill:rgb(138,40,220)"/><path d="M-22.064940262624642,-71.99133885511893L-24.646220012038746,-77.14132793737521L-29.125052442314345,-74.78054105364372z" style="fill:rgb(168,53,222)"/><path d="M-17.5194324292772,-74.16888970197112L-20.080125434901447,-79.32982629347106L-24.646220012038746,-77.14132793737521z" style="fill:rgb(160,49,222)"/><path d="M-26.523002265927087,-69.6411211021463L-29.125052442314345,-74.78054105364372L-33.50198229456888,-72.25514364834432z" style="fill:rgb(175,57,222)"/><path d="M-12.901300053095126,-76.1665713119257L-15.441640631606392,-81.33880464294532L-20.080125434901447,-79.32982629347106z" style="fill:rgb(153,46,222)"/><path d="M-30.879030756303628,-67.12588304612581L-33.50198229456888,-72.25514364834432L-37.76264457880954,-69.5732295066043z" style="fill:rgb(181,61,221)"/><path d="M60.26912310030822,-117.81879476820187L53.836128907138786,-118.48710385872988L47.251018544941516,-118.82535989651514z" style="fill:rgb(83,212,212)"/><path d="M-39.22799418354644,-61.633096137831565L-45.87895327560904,-63.77441119575934L-43.193086584327624,-58.67296912891961z" style="fill:rgb(194,70,219)"/><path d="M1.2377349621350182,-81.01521638335416L-6.007949217787216,-84.79153198321052L-3.507399913484976,-79.59577574609709z" style="fill:rgb(131,38,218)"/><path d="M-8.225548164089792,-77.97763000590146L-10.74582419574797,-83.16147806316317L-15.441640631606392,-81.33880464294532z" style="fill:rgb(146,43,221)"/><path d="M-35.118717734168214,-64.45370670180925L-37.76264457880954,-69.5732295066043L-41.89290525962765,-66.74333903852349z" style="fill:rgb(188,65,220)"/><path d="M-3.507399913484976,-79.59577574609709L-6.007949217787216,-84.79153198321052L-10.74582419574797,-83.16147806316317z" style="fill:rgb(138,40,220)"/><path d="M-43.193086584327624,-58.67296912891961L-49.70721457429081,-60.67584454715162L-47.00049549289068,-55.582717886897846z" style="fill:rgb(200,75,217)"/><path d="M-39.22799418354644,-61.633096137831565L-41.89290525962765,-66.74333903852349L-45.87895327560904,-63.77441119575934z" style="fill:rgb(194,70,219)"/><path d="M5.994288995010591,-82.23061700423177L-1.2434772483039163,-86.22311193869135L1.2377349621350182,-81.01521638335416z" style="fill:rgb(123,36,216)"/><path d="M47.251018544941516,-118.82535989651514L-1.2434772483039163,-86.22311193869135L3.5319742177740325,-87.45087239128652zM-104.47514338618984,-38.85807936570543L-107.75833161590639,-33.310704666166636L-110.67113573689748,-27.707151608864596z" style="fill:rgb(83,212,212)"/><path d="M1.2377349621350182,-81.01521638335416L-1.2434772483039163,-86.22311193869135L-6.007949217787216,-84.79153198321052z" style="fill:rgb(131,38,218)"/><path d="M-43.193086584327624,-58.67296912891961L-45.87895327560904,-63.77441119575934L-49.70721457429081,-60.67584454715162z" style="fill:rgb(200,75,217)"/><path d="M-47.00049549289068,-55.582717886897846L-53.36452754109995,-57.457376964201146L-50.63711954660663,-52.37204924117748z" style="fill:rgb(206,80,215)"/><path d="M47.251018544941516,-118.82535989651514L3.5319742177740325,-87.45087239128652L8.302640058221856,-88.46996569583355z" style="fill:rgb(83,212,212)"/><path d="M10.74654749583855,-83.23718112402304L3.5319742177740325,-87.45087239128652L5.994288995010591,-82.23061700423177z" style="fill:rgb(116,34,214)"/><path d="M5.994288995010591,-82.23061700423177L3.5319742177740325,-87.45087239128652L-1.2434772483039163,-86.22311193869135z" style="fill:rgb(123,36,216)"/><path d="M-56.83802095383048,-54.12921385956262L-1.2095513854066084,-112.27552981653639L-118.34016403792282,-5.098010262960923z" style="fill:rgb(83,212,212)"/><path d="M-47.00049549289068,-55.582717886897846L-49.70721457429081,-60.67584454715162L-53.36452754109995,-57.457376964201146z" style="fill:rgb(206,80,215)"/><path d="M47.251018544941516,-118.82535989651514L8.302640058221856,-88.46996569583355L13.052619014353276,-89.27603872883228z" style="fill:rgb(83,212,212)"/><path d="M-50.63711954660663,-52.37204924117748L-56.83802095383048,-54.12921385956262L-54.090136467502326,-49.05115222121033z" style="fill:rgb(212,85,213)"/><path d="M15.478657916245252,-84.0305959266329L8.302640058221856,-88.46996569583355L10.74654749583855,-83.23718112402304z" style="fill:rgb(108,33,211)"/><path d="M72.58617051393327,-115.48508108335551L60.26912310030822,-117.81879476820187L47.251018544941516,-118.82535989651514z" style="fill:rgb(83,212,212)"/><path d="M10.74654749583855,-83.23718112402304L8.302640058221856,-88.46996569583355L3.5319742177740325,-87.45087239128652z" style="fill:rgb(116,34,214)"/><path d="M47.251018544941516,-118.82535989651514L13.052619014353276,-89.27603872883228L17.76590720634391,-89.86531319784261z" style="fill:rgb(83,212,212)"/><path d="M-50.63711954660663,-52.37204924117748L-53.36452754109995,-57.457376964201146L-56.83802095383048,-54.12921385956262z" style="fill:rgb(212,85,213)"/><path d="M-54.090136467502326,-49.05115222121033L-60.11521288733817,-50.701917985988466L-57.34714132885949,-45.63058351141166z" style="fill:rgb(217,91,210)"/><path d="M20.174667660295235,-84.60712836463125L13.052619014353276,-89.27603872883228L15.478657916245252,-84.0305959266329z" style="fill:rgb(101,32,208)"/><path d="M47.251018544941516,-118.82535989651514L17.76590720634391,-89.86531319784261L22.426437135731213,-90.23456291905063z" style="fill:rgb(83,212,212)"/><path d="M15.478657916245252,-84.0305959266329L13.052619014353276,-89.27603872883228L8.302640058221856,-88.46996569583355z" style="fill:rgb(108,33,211)"/><path d="M-54.090136467502326,-49.05115222121033L-56.83802095383048,-54.12921385956262L-60.11521288733817,-50.701917985988466z" style="fill:rgb(217,91,210)"/><path d="M-96.85861230095557,-49.715950721513686L-110.67113573689748,-27.707151608864596L-118.34016403792282,-5.098010262960923z" style="fill:rgb(83,212,212)"/><path d="M-57.34714132885949,-45.63058351141166L-63.184007294364434,-47.18647543218156L-60.396099412767875,-42.12131570180256z" style="fill:rgb(222,96,207)"/><path d="M47.251018544941516,-118.82535989651514L22.426437135731213,-90.23456291905063L27.01805266632588,-90.38113013614579z" style="fill:rgb(83,212,212)"/><path d="M24.81855736531763,-84.96359894344086L17.76590720634391,-89.86531319784261L20.174667660295235,-84.60712836463125z" style="fill:rgb(94,32,205)"/><path d="M20.174667660295235,-84.60712836463125L17.76590720634391,-89.86531319784261L13.052619014353276,-89.27603872883228z" style="fill:rgb(101,32,208)"/><path d="M72.58617051393327,-115.48508108335551L66.52689554446597,-116.8184704756737L60.26912310030822,-117.81879476820187z" style="fill:rgb(83,212,212)"/><path d="M-57.34714132885949,-45.63058351141166L-60.11521288733817,-50.701917985988466L-63.184007294364434,-47.18647543218156z" style="fill:rgb(222,96,207)"/><path d="M47.251018544941516,-118.82535989651514L27.01805266632588,-90.38113013614579L31.524573054123888,-90.30298196194333z" style="fill:rgb(83,212,212)"/><path d="M-60.396099412767875,-42.12131570180256L-66.03281367117754,-43.59420211220577L-63.225486161860104,-38.534642858086514z" style="fill:rgb(226,102,203)"/><path d="M29.394223195865127,-85.09739864907333L22.426437135731213,-90.23456291905063L24.81855736531763,-84.96359894344086z" style="fill:rgb(86,32,201)"/><path d="M24.81855736531763,-84.96359894344086L22.426437135731213,-90.23456291905063L17.76590720634391,-89.86531319784261z" style="fill:rgb(94,32,205)"/><path d="M-60.396099412767875,-42.12131570180256L-63.184007294364434,-47.18647543218156L-66.03281367117754,-43.59420211220577z" style="fill:rgb(226,102,203)"/><path d="M-110.67113573689748,-27.707151608864596L-113.1991066017894,-22.06531232243085L-115.32844325412734,-16.403672678193107zM47.251018544941516,-118.82535989651514L31.524573054123888,-90.30298196194333L35.929855211599545,-89.99870123584391z" style="fill:rgb(83,212,212)"/><path d="M-63.225486161860104,-38.534642858086514L-68.65043354809457,-39.936840912514775L-65.82417266058486,-34.88230149539492z" style="fill:rgb(230,108,199)"/><path d="M29.394223195865127,-85.09739864907333L27.01805266632588,-90.38113013614579L22.426437135731213,-90.23456291905063z" style="fill:rgb(86,32,201)"/><path d="M33.885535603161436,-85.00654478609853L27.01805266632588,-90.38113013614579L29.394223195865127,-85.09739864907333z" style="fill:rgb(79,32,198)"/><path d="M-63.225486161860104,-38.534642858086514L-66.03281367117754,-43.59420211220577L-68.65043354809457,-39.936840912514775z" style="fill:rgb(230,108,199)"/><path d="M47.251018544941516,-118.82535989651514L35.929855211599545,-89.99870123584391L40.21777172647172,-89.46753623105715zM-60.11521288733817,-50.701917985988466L-56.83802095383048,-54.12921385956262L-118.34016403792282,-5.098010262960923zM94.37125724070071,-106.83373885372565L72.58617051393327,-115.48508108335551L47.251018544941516,-118.82535989651514z" style="fill:rgb(83,212,212)"/><path d="M-65.82417266058486,-34.88230149539492L-71.02623200912383,-36.22646884122486L-68.18159362623601,-31.17635577404091z" style="fill:rgb(234,114,195)"/><path d="M33.885535603161436,-85.00654478609853L31.524573054123888,-90.30298196194333L27.01805266632588,-90.38113013614579z" style="fill:rgb(79,32,198)"/><path d="M47.251018544941516,-118.82535989651514L40.21777172647172,-89.46753623105715L44.37229042019982,-88.70942799074453z" style="fill:rgb(83,212,212)"/><path d="M38.27639994735303,-84.68967365687072L31.524573054123888,-90.30298196194333L33.885535603161436,-85.00654478609853z" style="fill:rgb(73,33,193)"/><path d="M-65.82417266058486,-34.88230149539492L-68.65043354809457,-39.936840912514775L-71.02623200912383,-36.22646884122486z" style="fill:rgb(234,114,195)"/><path d="M-63.184007294364434,-47.18647543218156L-60.11521288733817,-50.701917985988466L-118.34016403792282,-5.098010262960923zM-110.67113573689748,-27.707151608864596L-115.32844325412734,-16.403672678193107L-118.34016403792282,-5.098010262960923zM-66.03281367117754,-43.59420211220577L-63.184007294364434,-47.18647543218156L-118.34016403792282,-5.098010262960923z" style="fill:rgb(83,212,212)"/><path d="M-68.18159362623601,-31.17635577404091L-73.15011924915594,-32.47551701478182L-70.28773056859518,-27.42923410424371z" style="fill:rgb(237,120,191)"/><path d="M38.27639994735303,-84.68967365687072L35.929855211599545,-89.99870123584391L31.524573054123888,-90.30298196194333z" style="fill:rgb(73,33,193)"/><path d="M42.55072990690546,-84.1460862937846L35.929855211599545,-89.99870123584391L38.27639994735303,-84.68967365687072z" style="fill:rgb(66,34,189)"/><path d="M-68.18159362623601,-31.17635577404091L-71.02623200912383,-36.22646884122486L-73.15011924915594,-32.47551701478182z" style="fill:rgb(237,120,191)"/><path d="M84.0158044696093,-111.81952752329953L78.42359788373967,-113.81845351531742L72.58617051393327,-115.48508108335551zM-68.65043354809457,-39.936840912514775L-66.03281367117754,-43.59420211220577L-118.34016403792282,-5.098010262960923zM-71.02623200912383,-36.22646884122486L-68.65043354809457,-39.936840912514775L-118.34016403792282,-5.098010262960923z" style="fill:rgb(83,212,212)"/><path d="M-70.28773056859518,-27.42923410424371L-75.0126013039175,-28.696739857904472L-72.13316187779542,-23.65367318460072z" style="fill:rgb(240,125,187)"/><path d="M42.55072990690546,-84.1460862937846L40.21777172647172,-89.46753623105715L35.929855211599545,-89.99870123584391z" style="fill:rgb(66,34,189)"/><path d="M-115.32844325412734,-16.403672678193107L-117.04617238503288,-10.74133083172222L-118.34016403792282,-5.098010262960923z" style="fill:rgb(83,212,212)"/><path d="M46.69256407434441,-83.37577886534162L40.21777172647172,-89.46753623105715L42.55072990690546,-84.1460862937846z" style="fill:rgb(60,35,184)"/><path d="M-70.28773056859518,-27.42923410424371L-73.15011924915594,-32.47551701478182L-75.0126013039175,-28.696739857904472z" style="fill:rgb(240,125,187)"/><path d="M-73.15011924915594,-32.47551701478182L-71.02623200912383,-36.22646884122486L-118.34016403792282,-5.098010262960923z" style="fill:rgb(83,212,212)"/><path d="M-72.13316187779542,-23.65367318460072L-76.60483395343073,-24.90322017454147L-73.70911212389792,-19.8627546288545z" style="fill:rgb(242,131,182)"/><path d="M46.69256407434441,-83.37577886534162L44.37229042019982,-88.70942799074453L40.21777172647172,-89.46753623105715z" style="fill:rgb(60,35,184)"/><path d="M94.37125724070071,-106.83373885372565L84.0158044696093,-111.81952752329953L72.58617051393327,-115.48508108335551z" style="fill:rgb(83,212,212)"/><path d="M50.68600046884817,-82.37946851068054L44.37229042019982,-88.70942799074453L46.69256407434441,-83.37577886534162z" style="fill:rgb(54,37,179)"/><path d="M-72.13316187779542,-23.65367318460072L-75.0126013039175,-28.696739857904472L-76.60483395343073,-24.90322017454147z" style="fill:rgb(242,131,182)"/><path d="M-75.0126013039175,-28.696739857904472L-73.15011924915594,-32.47551701478182L-118.34016403792282,-5.098010262960923zM-76.60483395343073,-24.90322017454147L-75.0126013039175,-28.696739857904472L-118.34016403792282,-5.098010262960923z" style="fill:rgb(83,212,212)"/><path d="M50.68600046884817,-82.37946851068054L48.377473820584264,-87.72503607053542L44.37229042019982,-88.70942799074453z" style="fill:rgb(54,37,179)"/><path d="M-73.70911212389792,-19.8627546288545L-77.91866380988719,-21.108336306886628L-75.00751995477383,-16.069848371023348z" style="fill:rgb(244,137,177)"/><path d="M54.51540560912425,-81.15859278841924L48.377473820584264,-87.72503607053542L50.68600046884817,-82.37946851068054z" style="fill:rgb(48,39,174)"/><path d="M-73.70911212389792,-19.8627546288545L-76.60483395343073,-24.90322017454147L-77.91866380988719,-21.108336306886628z" style="fill:rgb(244,137,177)"/><path d="M-77.91866380988719,-21.108336306886628L-76.60483395343073,-24.90322017454147L-118.34016403792282,-5.098010262960923zM94.37125724070071,-106.83373885372565L89.33944628926723,-109.49025048345436L84.0158044696093,-111.81952752329953z" style="fill:rgb(83,212,212)"/><path d="M54.51540560912425,-81.15859278841924L52.21763871840208,-86.51574222421749L48.377473820584264,-87.72503607053542z" style="fill:rgb(48,39,174)"/><path d="M-75.00751995477383,-16.069848371023348L-78.94670800914056,-17.32571065708213L-76.02104936711156,-12.2885678522099z" style="fill:rgb(245,143,172)"/><path d="M-78.94670800914056,-17.32571065708213L-77.91866380988719,-21.108336306886628L-118.34016403792282,-5.098010262960923z" style="fill:rgb(83,212,212)"/><path d="M-75.00751995477383,-16.069848371023348L-77.91866380988719,-21.108336306886628L-78.94670800914056,-17.32571065708213z" style="fill:rgb(245,143,172)"/><path d="M58.16531680428186,-79.71540051106197L52.21763871840208,-86.51574222421749L54.51540560912425,-81.15859278841924z" style="fill:rgb(42,41,169)"/><path d="M-118.34016403792282,-5.098010262960923L-119.19931672410884,0.5060380661942799L-119.61355615095006,6.050006176728613zM-79.68234161533074,-13.569222139664264L-78.94670800914056,-17.32571065708213L-118.34016403792282,-5.098010262960923z" style="fill:rgb(83,212,212)"/><path d="M58.16531680428186,-79.71540051106197L55.87725858024538,-85.08373763507022L52.21763871840208,-86.51574222421749z" style="fill:rgb(42,41,169)"/><path d="M-76.02104936711156,-12.2885678522099L-79.68234161533074,-13.569222139664264L-76.74316768428098,-8.53278747279362zM-76.02104936711156,-12.2885678522099L-78.94670800914056,-17.32571065708213L-79.68234161533074,-13.569222139664264z" style="fill:rgb(246,149,166)"/><path d="M61.62057627292125,-78.05291149917971L55.87725858024538,-85.08373763507022L58.16531680428186,-79.71540051106197z" style="fill:rgb(37,44,163)"/><path d="M121.46899546588995,-74.61378385235119L47.251018544941516,-118.82535989651514L44.37229042019982,-88.70942799074453zM-80.11986471627908,-9.852943668602537L-79.68234161533074,-13.569222139664264L-118.34016403792282,-5.098010262960923z" style="fill:rgb(83,212,212)"/><path d="M61.62057627292125,-78.05291149917971L59.3411391195284,-83.4319836979524L55.87725858024538,-85.08373763507022z" style="fill:rgb(37,44,163)"/><path d="M-76.74316768428098,-8.53278747279362L-80.11986471627908,-9.852943668602537L-77.1682438127055,-4.816572970530384z" style="fill:rgb(247,155,161)"/><path d="M-118.34016403792282,-5.098010262960923L-119.61355615095006,6.050006176728613L-119.07353731357279,16.872132409143283z" style="fill:rgb(83,212,212)"/><path d="M-76.74316768428098,-8.53278747279362L-79.68234161533074,-13.569222139664264L-80.11986471627908,-9.852943668602537z" style="fill:rgb(247,155,161)"/><path d="M121.46899546588995,-74.61378385235119L94.37125724070071,-106.83373885372565L47.251018544941516,-118.82535989651514z" style="fill:rgb(83,212,212)"/><path d="M64.86635976570662,-76.17498633346676L59.3411391195284,-83.4319836979524L61.62057627292125,-78.05291149917971z" style="fill:rgb(32,47,158)"/><path d="M-80.25448614299131,-6.19110538897349L-80.11986471627908,-9.852943668602537L-118.34016403792282,-5.098010262960923zM103.46792521117732,-100.5577434057663L99.08831910021641,-103.85435142709106L94.37125724070071,-106.83373885372565zM-80.0823886800792,-2.5980604759520647L-80.25448614299131,-6.19110538897349L-118.34016403792282,-5.098010262960923z" style="fill:rgb(83,212,212)"/><path d="M64.86635976570662,-76.17498633346676L62.59440249512196,-81.5642788655771L59.3411391195284,-83.4319836979524z" style="fill:rgb(32,47,158)"/><path d="M-77.1682438127055,-4.816572970530384L-80.25448614299131,-6.19110538897349L-77.2915588733762,-1.1541513701954436zM-77.1682438127055,-4.816572970530384L-80.11986471627908,-9.852943668602537L-80.25448614299131,-6.19110538897349z" style="fill:rgb(247,161,155)"/><path d="M67.88833739681927,-74.08631021128936L62.59440249512196,-81.5642788655771L64.86635976570662,-76.17498633346676z" style="fill:rgb(28,51,152)"/><path d="M-119.61355615095006,6.050006176728613L-119.57412347616547,11.512608333263248L-119.07353731357279,16.872132409143283zM-79.60078355040507,0.9117571352199234L-80.0823886800792,-2.5980604759520647L-118.34016403792282,-5.098010262960923z" style="fill:rgb(83,212,212)"/><path d="M67.88833739681927,-74.08631021128936L65.62267168876532,-79.4852661918859L62.59440249512196,-81.5642788655771z" style="fill:rgb(28,51,152)"/><path d="M-77.2915588733762,-1.1541513701954436L-80.0823886800792,-2.5980604759520647L-77.10936621353838,2.4401293799871557zM-77.2915588733762,-1.1541513701954436L-80.25448614299131,-6.19110538897349L-80.0823886800792,-2.5980604759520647z" style="fill:rgb(246,166,149)"/><path d="M70.6725920373046,-71.79248651208499L65.62267168876532,-79.4852661918859L67.88833739681927,-74.08631021128936z" style="fill:rgb(24,55,146)"/><path d="M-78.80805189134477,4.323915214083691L-79.60078355040507,0.9117571352199234L-118.34016403792282,-5.098010262960923zM111.12681510877385,-93.04241271078726L103.46792521117732,-100.5577434057663L94.37125724070071,-106.83373885372565zM121.46899546588995,-74.61378385235119L44.37229042019982,-88.70942799074453L48.377473820584264,-87.72503607053542zM-77.70369373094637,7.624033984366915L-78.80805189134477,4.323915214083691L-118.34016403792282,-5.098010262960923zM121.46899546588995,-74.61378385235119L48.377473820584264,-87.72503607053542L52.21763871840208,-86.51574222421749z" style="fill:rgb(83,212,212)"/><path d="M70.6725920373046,-71.79248651208499L68.41198280994278,-77.20047915631592L65.62267168876532,-79.4852661918859z" style="fill:rgb(24,55,146)"/><path d="M-77.10936621353838,2.4401293799871557L-79.60078355040507,0.9117571352199234L-76.61895062892944,5.951838983725191zM-77.10936621353838,2.4401293799871557L-80.0823886800792,-2.5980604759520647L-79.60078355040507,0.9117571352199234z" style="fill:rgb(245,172,143)"/><path d="M73.2058334170228,-69.29997544439912L68.41198280994278,-77.20047915631592L70.6725920373046,-71.79248651208499z" style="fill:rgb(20,59,140)"/><path d="M121.46899546588995,-74.61378385235119L52.21763871840208,-86.51574222421749L55.87725858024538,-85.08373763507022zM-76.28844996394872,10.797816589968876L-77.70369373094637,7.624033984366915L-118.34016403792282,-5.098010262960923zM111.12681510877385,-93.04241271078726L107.48794918424187,-96.95093493469628L103.46792521117732,-100.5577434057663z" style="fill:rgb(83,212,212)"/><path d="M73.2058334170228,-69.29997544439912L70.94900129923852,-74.71632860385444L68.41198280994278,-77.20047915631592z" style="fill:rgb(20,59,140)"/><path d="M-76.61895062892944,5.951838983725191L-78.80805189134477,4.323915214083691L-75.8187400043007,9.366548261523981z" style="fill:rgb(244,177,137)"/><path d="M121.46899546588995,-74.61378385235119L55.87725858024538,-85.08373763507022L59.3411391195284,-83.4319836979524z" style="fill:rgb(83,212,212)"/><path d="M-76.61895062892944,5.951838983725191L-79.60078355040507,0.9117571352199234L-78.80805189134477,4.323915214083691z" style="fill:rgb(244,177,137)"/><path d="M75.47541984982361,-66.61617469694855L70.94900129923852,-74.71632860385444L73.2058334170228,-69.29997544439912z" style="fill:rgb(17,63,135)"/><path d="M-74.56433370389496,13.831149188459994L-76.28844996394872,10.797816589968876L-118.34016403792282,-5.098010262960923zM-119.07353731357279,16.872132409143283L-118.10583213123235,22.10646487293338L-116.66662620649126,27.193222548862867zM121.46899546588995,-74.61378385235119L59.3411391195284,-83.4319836979524L62.59440249512196,-81.5642788655771z" style="fill:rgb(83,212,212)"/><path d="M75.47541984982361,-66.61617469694855L73.22104285151741,-72.04015973385313L70.94900129923852,-74.71632860385444z" style="fill:rgb(17,63,135)"/><path d="M-72.5346941522707,16.71019359234078L-74.56433370389496,13.831149188459994L-118.34016403792282,-5.098010262960923z" style="fill:rgb(83,212,212)"/><path d="M-75.8187400043007,9.366548261523981L-77.70369373094637,7.624033984366915L-74.70832431452382,12.669879857367706zM-75.8187400043007,9.366548261523981L-78.80805189134477,4.323915214083691L-77.70369373094637,7.624033984366915z" style="fill:rgb(242,182,131)"/><path d="M77.4694460273857,-63.74936841041573L73.22104285151741,-72.04015973385313L75.47541984982361,-66.61617469694855z" style="fill:rgb(14,67,129)"/><path d="M121.46899546588995,-74.61378385235119L62.59440249512196,-81.5642788655771L65.62267168876532,-79.4852661918859zM121.46899546588995,-74.61378385235119L111.12681510877385,-93.04241271078726L94.37125724070071,-106.83373885372565zM-70.20424724660246,19.421422378531837L-72.5346941522707,16.71019359234078L-118.34016403792282,-5.098010262960923z" style="fill:rgb(83,212,212)"/><path d="M77.4694460273857,-63.74936841041573L75.21616344942497,-69.18020780458863L73.22104285151741,-72.04015973385313z" style="fill:rgb(14,67,129)"/><path d="M121.46899546588995,-74.61378385235119L65.62267168876532,-79.4852661918859L68.41198280994278,-77.20047915631592z" style="fill:rgb(83,212,212)"/><path d="M-74.70832431452382,12.669879857367706L-76.28844996394872,10.797816589968876L-73.28848369312013,15.847535303310625z" style="fill:rgb(240,187,125)"/><path d="M-119.07353731357279,16.872132409143283L-116.66662620649126,27.193222548862867L-112.36522954381245,36.833669926445694z" style="fill:rgb(83,212,212)"/><path d="M-74.70832431452382,12.669879857367706L-77.70369373094637,7.624033984366915L-76.28844996394872,10.797816589968876z" style="fill:rgb(240,187,125)"/><path d="M79.17683960009215,-60.70880091702613L75.21616344942497,-69.18020780458863L77.4694460273857,-63.74936841041573z" style="fill:rgb(12,72,123)"/><path d="M-67.57911444006054,21.951740831646024L-70.20424724660246,19.421422378531837L-118.34016403792282,-5.098010262960923zM121.46899546588995,-74.61378385235119L68.41198280994278,-77.20047915631592L70.94900129923852,-74.71632860385444zM117.1786616987913,-84.36155703164276L114.36367662557062,-88.84210759235927L111.12681510877385,-93.04241271078726z" style="fill:rgb(83,212,212)"/><path d="M79.17683960009215,-60.70880091702613L76.92324961132704,-66.14567026256259L75.21616344942497,-69.18020780458863z" style="fill:rgb(12,72,123)"/><path d="M-64.66690873947634,24.28853320537641L-67.57911444006054,21.951740831646024L-118.34016403792282,-5.098010262960923z" style="fill:rgb(83,212,212)"/><path d="M-73.28848369312013,15.847535303310625L-74.56433370389496,13.831149188459994L-71.56128883945131,18.88540606372013zM-73.28848369312013,15.847535303310625L-76.28844996394872,10.797816589968876L-74.56433370389496,13.831149188459994z" style="fill:rgb(237,191,119)"/><path d="M80.58743913933763,-57.50464308515491L76.92324961132704,-66.14567026256259L79.17683960009215,-60.70880091702613z" style="fill:rgb(10,77,117)"/><path d="M121.46899546588995,-74.61378385235119L70.94900129923852,-74.71632860385444L73.22104285151741,-72.04015973385313zM-116.66662620649126,27.193222548862867L-114.75333930263257,32.109855514982314L-112.36522954381245,36.833669926445694zM-61.476627774572506,26.419808240444297L-64.66690873947634,24.28853320537641L-118.34016403792282,-5.098010262960923zM121.46899546588995,-74.61378385235119L73.22104285151741,-72.04015973385313L75.21616344942497,-69.18020780458863z" style="fill:rgb(83,212,212)"/><path d="M80.58743913933763,-57.50464308515491L78.33212689160128,-62.946675219352514L76.92324961132704,-66.14567026256259z" style="fill:rgb(10,77,117)"/><path d="M121.46899546588995,-74.61378385235119L117.1786616987913,-84.36155703164276L111.12681510877385,-93.04241271078726zM121.46899546588995,-74.61378385235119L75.21616344942497,-69.18020780458863L76.92324961132704,-66.14567026256259zM121.46899546588995,-74.61378385235119L76.92324961132704,-66.14567026256259L78.33212689160128,-62.946675219352514zM121.46899546588995,-74.61378385235119L119.55293930838633,-79.6138602503698L117.1786616987913,-84.36155703164276zM121.46899546588995,-74.61378385235119L78.33212689160128,-62.946675219352514L79.43360719299002,-59.594252890961975z" style="fill:rgb(83,212,212)"/><path d="M-102.96563584404207,50.584885397632306L-109.5036520097729,41.34206709750912L-106.29916448062406,46.30690500468914z" style="fill:rgb(24,55,146)"/><path d="M121.46899546588995,-74.61378385235119L79.43360719299002,-59.594252890961975L80.2196015365137,-56.10034501052337zM-112.36522954381245,36.833669926445694L-109.5036520097729,41.34206709750912L-106.172088139941,45.61255847254205z" style="fill:rgb(83,212,212)"/><path d="M-102.96563584404207,50.584885397632306L-106.172088139941,45.61255847254205L-109.5036520097729,41.34206709750912z" style="fill:rgb(24,55,146)"/><path d="M121.46899546588995,-74.61378385235119L80.2196015365137,-56.10034501052337L80.68325825853096,-52.477819168108134z" style="fill:rgb(83,212,212)"/><path d="M123.53279093098767,-69.05766473544038L121.46899546588995,-74.61378385235119L122.91073555232036,-69.37776636970368zM123.53279093098767,-69.05766473544038L122.91073555232036,-69.37776636970368L124.97924208964423,-63.81574604559984z" style="fill:rgb(246,166,149)"/><path d="M121.46899546588995,-74.61378385235119L80.68325825853096,-52.477819168108134L80.81899585599734,-48.74038301195283zM121.46899546588995,-74.61378385235119L80.81899585599734,-48.74038301195283L80.62258951859381,-44.90257709847134zM123.86376556978615,-63.92389010869899L122.91073555232036,-69.37776636970368L121.46899546588995,-74.61378385235119z" style="fill:rgb(83,212,212)"/><path d="M124.97924208964423,-63.81574604559984L122.91073555232036,-69.37776636970368L123.86376556978615,-63.92389010869899zM124.97924208964423,-63.81574604559984L123.86376556978615,-63.92389010869899L125.93929364289936,-58.35754796019786z" style="fill:rgb(247,161,155)"/><path d="M121.46899546588995,-74.61378385235119L80.62258951859381,-44.90257709847134L80.09124765452086,-40.97971187284402zM121.46899546588995,-74.61378385235119L80.09124765452086,-40.97971187284402L79.22374375254239,-36.987841356095835zM121.46899546588995,-74.61378385235119L79.22374375254239,-36.987841356095835L78.02043613922186,-32.94365108143613zM124.25536642623865,-52.4432281194716L123.86376556978615,-63.92389010869899L121.46899546588995,-74.61378385235119z" style="fill:rgb(83,212,212)"/><path d="M125.93929364289936,-58.35754796019786L123.86376556978615,-63.92389010869899L124.31546443199602,-58.27190454805975zM125.93929364289936,-58.35754796019786L124.31546443199602,-58.27190454805975L126.40037884164654,-52.70287480226656z" style="fill:rgb(247,155,161)"/><path d="M121.46899546588995,-74.61378385235119L78.02043613922186,-32.94365108143613L76.48329495839052,-28.864430910378626zM121.46899546588995,-74.61378385235119L76.48329495839052,-28.864430910378626L74.61599777124985,-24.767964179502236zM124.25536642623865,-52.4432281194716L124.31546443199602,-58.27190454805975L123.86376556978615,-63.92389010869899z" style="fill:rgb(83,212,212)"/><path d="M126.40037884164654,-52.70287480226656L124.31546443199602,-58.27190454805975L124.25536642623865,-52.4432281194716zM126.40037884164654,-52.70287480226656L124.25536642623865,-52.4432281194716L126.35207511638863,-46.87318407631158z" style="fill:rgb(246,149,166)"/><path d="M121.46899546588995,-74.61378385235119L74.61599777124985,-24.767964179502236L72.42394638067194,-20.67241787474563zM-118.34016403792282,-5.098010262960923L-119.07353731357279,16.872132409143283L-20.389543746435013,139.8724693235726zM118.76893358968844,-27.843963420789137L124.25536642623865,-52.4432281194716L121.46899546588995,-74.61378385235119z" style="fill:rgb(83,212,212)"/><path d="M126.35207511638863,-46.87318407631158L124.25536642623865,-52.4432281194716L123.67517545330358,-46.46083631447661zM126.35207511638863,-46.87318407631158L123.67517545330358,-46.46083631447661L125.78611756472866,-40.891498300491904z" style="fill:rgb(245,143,172)"/><path d="M122.56906655431183,-40.34929720963245L123.67517545330358,-46.46083631447661L124.25536642623865,-52.4432281194716z" style="fill:rgb(83,212,212)"/><path d="M125.78611756472866,-40.891498300491904L123.67517545330358,-46.46083631447661L122.56906655431183,-40.34929720963245zM125.78611756472866,-40.891498300491904L122.56906655431183,-40.34929720963245L124.69669826787194,-34.78238822495204z" style="fill:rgb(244,137,177)"/><path d="M-61.476627774572506,26.419808240444297L-118.34016403792282,-5.098010262960923L-20.389543746435013,139.8724693235726zM-119.07353731357279,16.872132409143283L-112.36522954381245,36.833669926445694L-20.389543746435013,139.8724693235726zM118.76893358968844,-27.843963420789137L122.56906655431183,-40.34929720963245L124.25536642623865,-52.4432281194716z" style="fill:rgb(83,212,212)"/><path d="M124.69669826787194,-34.78238822495204L120.93379233324843,-34.13457282194044L123.08057098071008,-28.5718320427406zM124.69669826787194,-34.78238822495204L122.56906655431183,-40.34929720963245L120.93379233324843,-34.13457282194044z" style="fill:rgb(242,131,182)"/><path d="M123.08057098071008,-28.5718320427406L118.76893358968844,-27.843963420789137L120.93730039713934,-22.28712241497135zM123.08057098071008,-28.5718320427406L120.93379233324843,-34.13457282194044L118.76893358968844,-27.843963420789137z" style="fill:rgb(240,125,187)"/><path d="M118.76893358968844,-27.843963420789137L120.93379233324843,-34.13457282194044L122.56906655431183,-40.34929720963245z" style="fill:rgb(83,212,212)"/><path d="M-21.651608441042743,143.18094755980792L-106.172088139941,45.61255847254205L-102.96563584404207,50.584885397632306z" style="fill:rgb(26,52,150)"/><path d="M120.93730039713934,-22.28712241497135L116.07692962087091,-21.50600057203605L118.26929203045573,-15.956761751191955zM120.93730039713934,-22.28712241497135L118.76893358968844,-27.843963420789137L116.07692962087091,-21.50600057203605z" style="fill:rgb(237,120,191)"/><path d="M-112.36522954381245,36.833669926445694L-106.172088139941,45.61255847254205L-20.389543746435013,139.8724693235726z" style="fill:rgb(83,212,212)"/><path d="M118.26929203045573,-15.956761751191955L112.86333913561626,-15.150204649333341L115.08204962029767,-9.610242542751966zM118.26929203045573,-15.956761751191955L116.07692962087091,-21.50600057203605L112.86333913561626,-15.150204649333341z" style="fill:rgb(234,114,195)"/><path d="M112.86333913561626,-15.150204649333341L116.07692962087091,-21.50600057203605L118.76893358968844,-27.843963420789137zM-58.01881054480581,28.33423631017123L-61.476627774572506,26.419808240444297L-20.389543746435013,139.8724693235726z" style="fill:rgb(83,212,212)"/><path d="M115.08204962029767,-9.610242542751966L109.13681955006197,-8.80700994047915L111.38415658048847,-3.2779435759966757zM115.08204962029767,-9.610242542751966L112.86333913561626,-15.150204649333341L109.13681955006197,-8.80700994047915z" style="fill:rgb(230,108,199)"/><path d="M-54.30545303365181,30.021267523845854L-58.01881054480581,28.33423631017123L-20.389543746435013,139.8724693235726zM-20.389543746435013,139.8724693235726L121.46899546588995,-74.61378385235119L72.42394638067194,-20.67241787474563zM-50.35002623968198,31.471192920356142L-54.30545303365181,30.021267523845854L-20.389543746435013,139.8724693235726zM-46.16738165602482,32.67530714702372L-50.35002623968198,31.471192920356142L-20.389543746435013,139.8724693235726zM-41.77386192457145,33.62589665117929L-46.16738165602482,32.67530714702372L-20.389543746435013,139.8724693235726zM-20.389543746435013,139.8724693235726L118.76893358968844,-27.843963420789137L121.46899546588995,-74.61378385235119zM-37.187088728482074,34.31639941561416L-41.77386192457145,33.62589665117929L-20.389543746435013,139.8724693235726zM-32.426009131013274,34.74145483060081L-37.187088728482074,34.31639941561416L-20.389543746435013,139.8724693235726zM-20.389543746435013,139.8724693235726L72.42394638067194,-20.67241787474563L69.91427806741352,-16.59628044419537zM-27.510733477115636,34.89696297998087L-32.426009131013274,34.74145483060081L-20.389543746435013,139.8724693235726zM-20.389543746435013,139.8724693235726L69.91427806741352,-16.59628044419537L67.09586996349857,-12.558205622481594zM-22.462506671226905,34.78016545365916L-27.510733477115636,34.89696297998087L-20.389543746435013,139.8724693235726zM-20.389543746435013,139.8724693235726L67.09586996349857,-12.558205622481594L63.97938910063773,-8.576978846281575zM-17.30356931018606,34.38970037860582L-22.462506671226905,34.78016545365916L-20.389543746435013,139.8724693235726zM-20.389543746435013,139.8724693235726L63.97938910063773,-8.576978846281575L60.5771271343777,-4.671253004160563zM-12.057000462730038,33.72560973953266L-17.30356931018606,34.38970037860582L-20.389543746435013,139.8724693235726zM-20.389543746435013,139.8724693235726L60.5771271343777,-4.671253004160563L56.90311797530789,-0.8595759747378081zM-6.746631185472352,32.78938871003613L-12.057000462730038,33.72560973953266L-20.389543746435013,139.8724693235726zM-20.389543746435013,139.8724693235726L56.90311797530789,-0.8595759747378081L52.97296137076902,2.839830971065603zM-1.3968875554398843,31.584044223339976L-6.746631185472352,32.78938871003613L-20.389543746435013,139.8724693235726zM-20.389543746435013,139.8724693235726L52.97296137076902,2.839830971065603L48.80382805900278,6.409143077066501zM3.9673848703989396,30.114048211784L-1.3968875554398843,31.584044223339976L-20.389543746435013,139.8724693235726zM-20.389543746435013,139.8724693235726L48.80382805900278,6.409143077066501L44.41424775970509,9.831171252076947zM-20.389543746435013,139.8724693235726L9.321073748936886,28.38533829057304L3.9673848703989396,30.114048211784zM-20.389543746435013,139.8724693235726L44.41424775970509,9.831171252076947L39.824153985189376,13.089317990179435zM-20.389543746435013,139.8724693235726L14.638960480096939,26.405287207603564L9.321073748936886,28.38533829057304zM-20.389543746435013,139.8724693235726L39.824153985189376,13.089317990179435L35.05465195252429,16.16784859330827zM-20.389543746435013,139.8724693235726L19.895908548090016,24.182717290942207L14.638960480096939,26.405287207603564zM-20.389543746435013,139.8724693235726L35.05465195252429,16.16784859330827L30.12792725674936,19.05193378512032zM-20.389543746435013,139.8724693235726L25.067055172387864,21.727783234251344L19.895908548090016,24.182717290942207zM-20.389543746435013,139.8724693235726L30.12792725674936,19.05193378512032L25.067055172387864,21.727783234251344zM22.028009009545652,127.56361778395767L112.86333913561626,-15.150204649333341L118.76893358968844,-27.843963420789137z" style="fill:rgb(83,212,212)"/><path d="M111.38415658048847,-3.2779435759966757L109.13681955006197,-8.80700994047915L22.028009009545652,127.56361778395767z" style="fill:rgb(228,104,202)"/><path d="M22.028009009545652,127.56361778395767L109.13681955006197,-8.80700994047915L112.86333913561626,-15.150204649333341z" style="fill:rgb(83,212,212)"/><path d="M-21.651608441042743,143.18094755980792L-24.814322211790614,138.08647332135217L-106.172088139941,45.61255847254205z" style="fill:rgb(26,52,150)"/><path d="M-106.172088139941,45.61255847254205L-24.814322211790614,138.08647332135217L-20.389543746435013,139.8724693235726zM-20.389543746435013,139.8724693235726L22.028009009545652,127.56361778395767L118.76893358968844,-27.843963420789137z" style="fill:rgb(83,212,212)"/><path d="M111.38415658048847,-3.2779435759966757L22.028009009545652,127.56361778395767L24.960150508993063,132.7771160569122z" style="fill:rgb(228,104,202)"/><path d="M-17.240913583126943,144.97448410889606L-24.814322211790614,138.08647332135217L-21.651608441042743,143.18094755980792z" style="fill:rgb(57,36,182)"/><path d="M-11.843199832180195,144.7605275200018L-20.389543746435013,139.8724693235726L-17.240913583126943,144.97448410889606z" style="fill:rgb(102,32,209)"/><path d="M-17.240913583126943,144.97448410889606L-20.389543746435013,139.8724693235726L-24.814322211790614,138.08647332135217z" style="fill:rgb(57,36,182)"/><path d="M-11.843199832180195,144.7605275200018L-14.967943513503254,139.64611776892835L-20.389543746435013,139.8724693235726z" style="fill:rgb(102,32,209)"/><path d="M14.982016546086728,138.79815313824L-14.967943513503254,139.64611776892835L-11.843199832180195,144.7605275200018z" style="fill:rgb(127,37,217)"/><path d="M-20.389543746435013,139.8724693235726L-14.967943513503254,139.64611776892835L11.990388922603358,133.6152998771116z" style="fill:rgb(83,212,212)"/><path d="M14.982016546086728,138.79815313824L11.990388922603358,133.6152998771116L-14.967943513503254,139.64611776892835z" style="fill:rgb(127,37,217)"/><path d="M24.960150508993063,132.7771160569122L17.502212296645272,131.38647757249652L20.463891064602702,136.58470280150266z" style="fill:rgb(197,72,218)"/><path d="M20.463891064602702,136.58470280150266L11.990388922603358,133.6152998771116L14.982016546086728,138.79815313824z" style="fill:rgb(152,45,222)"/><path d="M-20.389543746435013,139.8724693235726L11.990388922603358,133.6152998771116L22.028009009545652,127.56361778395767z" style="fill:rgb(83,212,212)"/><path d="M24.960150508993063,132.7771160569122L22.028009009545652,127.56361778395767L17.502212296645272,131.38647757249652z" style="fill:rgb(197,72,218)"/><path d="M20.463891064602702,136.58470280150266L17.502212296645272,131.38647757249652L11.990388922603358,133.6152998771116z" style="fill:rgb(152,45,222)"/><path d="M11.990388922603358,133.6152998771116L17.502212296645272,131.38647757249652L22.028009009545652,127.56361778395767z" style="fill:rgb(83,212,212)"/></svg>
