<?xml version="1.0" encoding="UTF-8"?>
<!-- Generated by jsxcad -->
<!DOCTYPE svg PUBLIC "-//W3C//DTD SVG 1.1 Tiny//EN" "http://www.w3.org/Graphics/SVG/1.1/DTD/svg11-tiny.dtd">
<svg viewBox="-250 -250 500 500" width="500" height="500" xmlns="http://www.w3.org/2000/svg"><path d="M-28.853415709148926,-102.0470560245684L-35.55165803584561,-98.82992535718796L-42.125147876370676,-95.36739119173141zM-28.853415709148926,-102.0470560245684L-42.125147876370676,-95.36739119173141L-54.820611163095386,-87.74712776056937zM-48.55451178106601,-91.66959290091296L-54.820611163095386,-87.74712776056937L-42.125147876370676,-95.36739119173141zM-15.161475072470386,-107.70696483064313L-22.050057593674133,-105.0091297910755L-28.853415709148926,-102.0470560245684zM-28.853415709148926,-102.0470560245684L-54.820611163095386,-87.74712776056937L-1.2095513854066084,-112.27552981653639zM-1.2095513854066084,-112.27552981653639L-15.161475072470386,-107.70696483064313L-28.853415709148926,-102.0470560245684zM-60.90455744753554,-83.61107616394753L-66.78771295811795,-79.27302501288214L-54.820611163095386,-87.74712776056937zM-1.2095513854066084,-112.27552981653639L-8.207828066621449,-110.13184356551355L-15.161475072470386,-107.70696483064313zM-54.820611163095386,-87.74712776056937L-66.78771295811795,-79.27302501288214L-77.8783069695792,-70.03972247677987zM-66.78771295811795,-79.27302501288214L-72.45167286901085,-74.74503861153453L-77.8783069695792,-70.03972247677987zM12.837728589865575,-115.68889484857951L5.812636826043379,-114.13028968620523L-1.2095513854066084,-112.27552981653639zM-96.85860435760809,-49.71594676153756L-1.2095513854066084,-112.27552981653639L-54.820611163095386,-87.74712776056937zM-1.2095513854066084,-112.27552981653639L26.811129795944634,-117.89139835473719L12.837728589865575,-115.68889484857951zM-54.820611163095386,-87.74712776056937L-77.8783069695792,-70.03972247677987L-96.85860435760809,-49.71594676153756zM-77.8783069695792,-70.03972247677987L-83.04974157047504,-65.17019372386419L-87.94839155137632,-60.15013433998766zM26.811129795944634,-117.89139835473719L19.84442524753217,-116.94464280042429L12.837728589865575,-115.68889484857951zM-77.8783069695792,-70.03972247677987L-87.94839155137632,-60.15013433998766L-96.85860435760809,-49.71594676153756zM-87.94839155137632,-60.15013433998766L-92.55698148314595,-54.993781768909884L-96.85860435760809,-49.71594676153756zM40.536737515609715,-118.83635125650837L33.7159559123152,-118.52361139706433L26.811129795944634,-117.89139835473719zM26.811129795944634,-117.89139835473719L-1.2095513854066084,-112.27552981653639L8.30264005822895,-88.46995679492557zM53.83612448725866,-118.48710385872988L40.536737515609715,-118.83635125650837L26.811129795944634,-117.89139835473719zM-29.125047770217524,-74.78054926635035L-24.646222014742403,-77.14133612953894L-1.2095513854066084,-112.27552981653639zM-24.646222014742403,-77.14133612953894L-20.080134114347985,-79.32983446842456L-1.2095513854066084,-112.27552981653639zM-1.2095513854066084,-112.27552981653639L-33.50198229456888,-72.25514364834432L-29.125047770217524,-74.78054926635035zM-20.080134114347985,-79.32983446842456L-15.441641738311665,-81.33880464294532L-1.2095513854066084,-112.27552981653639zM-1.2095513854066084,-112.27552981653639L-37.762644899987954,-69.57322567111214L-33.50198229456888,-72.25514364834432zM-1.2095513854066084,-112.27552981653639L-15.441641738311665,-81.33880464294532L-10.745823179772941,-83.16147877155309zM-1.2095513854066084,-112.27552981653639L-41.89291004760209,-66.74333074475064L-37.762644899987954,-69.57322567111214zM-10.745823179772941,-83.16147877155309L-6.007950326128437,-84.7915231165939L-1.2095513854066084,-112.27552981653639zM-1.2095513854066084,-112.27552981653639L-45.87894883995641,-63.77441119575934L-41.89291004760209,-66.74333074475064zM-100.83669103495589,-44.33204463716519L-104.47514338614559,-38.858083776961976L-96.85860435760809,-49.71594676153756zM-6.007950326128437,-84.7915231165939L-1.2434772483039163,-86.22311193869135L-1.2095513854066084,-112.27552981653639zM-49.7072238801021,-60.67583618381577L-45.87894883995641,-63.77441119575934L-1.2095513854066084,-112.27552981653639zM-1.2095513854066084,-112.27552981653639L-1.2434772483039163,-86.22311193869135L3.5319753287270155,-87.45087239128652zM-53.364531988213955,-57.457376964201146L-49.7072238801021,-60.67583618381577L-1.2095513854066084,-112.27552981653639zM53.83612448725866,-118.48710385872988L47.251022947485694,-118.82535989651514L40.536737515609715,-118.83635125650837zM8.30264005822895,-88.46995679492557L-1.2095513854066084,-112.27552981653639L3.5319753287270155,-87.45087239128652zM-1.2095513854066084,-112.27552981653639L-56.83802095383048,-54.12921385956262L-53.364531988213955,-57.457376964201146zM-1.2095513854066084,-112.27552981653639L-96.85860435760809,-49.71594676153756L-118.34017259271232,-5.098011940965619z" style="fill:rgb(83,212,212)"/><path d="M-22.064940075982477,-71.9913426492221L-29.125047770217524,-74.78054926635035L-26.522997637363957,-69.6411249163514z" style="fill:rgb(168,53,222)"/><path d="M-17.519439989268086,-74.1688890736382L-24.646222014742403,-77.14133612953894L-22.064940075982477,-71.9913426492221z" style="fill:rgb(160,49,222)"/><path d="M-26.522997637363957,-69.6411249163514L-33.50198229456888,-72.25514364834432L-30.879032959031015,-67.12588304612581z" style="fill:rgb(175,57,222)"/><path d="M-12.901301154702631,-76.1665713119257L-20.080134114347985,-79.32983446842456L-17.519439989268086,-74.1688890736382z" style="fill:rgb(153,46,222)"/><path d="M-96.85860435760809,-49.71594676153756L-104.47514338614559,-38.858083776961976L-110.67112684024427,-27.707156057155718z" style="fill:rgb(83,212,212)"/><path d="M-30.879032959031015,-67.12588304612581L-37.762644899987954,-69.57322567111214L-35.118720235337456,-64.45370284064758z" style="fill:rgb(181,61,221)"/><path d="M-8.225548233746865,-77.97763066712756L-15.441641738311665,-81.33880464294532L-12.901301154702631,-76.1665713119257z" style="fill:rgb(146,43,221)"/><path d="M-35.118720235337456,-64.45370284064758L-41.89291004760209,-66.74333074475064L-39.22799451591176,-61.63308783900382z" style="fill:rgb(188,65,220)"/><path d="M-3.5074010167083167,-79.59577574609709L-10.745823179772941,-83.16147877155309L-8.225548233746865,-77.97763066712756z" style="fill:rgb(138,40,220)"/><path d="M-22.064940075982477,-71.9913426492221L-24.646222014742403,-77.14133612953894L-29.125047770217524,-74.78054926635035z" style="fill:rgb(168,53,222)"/><path d="M-17.519439989268086,-74.1688890736382L-20.080134114347985,-79.32983446842456L-24.646222014742403,-77.14133612953894z" style="fill:rgb(160,49,222)"/><path d="M-26.522997637363957,-69.6411249163514L-29.125047770217524,-74.78054926635035L-33.50198229456888,-72.25514364834432z" style="fill:rgb(175,57,222)"/><path d="M-12.901301154702631,-76.1665713119257L-15.441641738311665,-81.33880464294532L-20.080134114347985,-79.32983446842456z" style="fill:rgb(153,46,222)"/><path d="M-30.879032959031015,-67.12588304612581L-33.50198229456888,-72.25514364834432L-37.762644899987954,-69.57322567111214z" style="fill:rgb(181,61,221)"/><path d="M-39.22799451591176,-61.63308783900382L-45.87894883995641,-63.77441119575934L-43.193082169129,-58.67297354407504z" style="fill:rgb(194,70,219)"/><path d="M1.2377349621350182,-81.01521638335416L-6.007950326128437,-84.7915231165939L-3.5074010167083167,-79.59577574609709z" style="fill:rgb(131,38,218)"/><path d="M-8.225548233746865,-77.97763066712756L-10.745823179772941,-83.16147877155309L-15.441641738311665,-81.33880464294532z" style="fill:rgb(146,43,221)"/><path d="M26.811129795944634,-117.89139835473719L8.30264005822895,-88.46995679492557L13.052620128881502,-89.27603872883228z" style="fill:rgb(83,212,212)"/><path d="M-35.118720235337456,-64.45370284064758L-37.762644899987954,-69.57322567111214L-41.89291004760209,-66.74333074475064z" style="fill:rgb(188,65,220)"/><path d="M-3.5074010167083167,-79.59577574609709L-6.007950326128437,-84.7915231165939L-10.745823179772941,-83.16147877155309z" style="fill:rgb(138,40,220)"/><path d="M-43.193082169129,-58.67297354407504L-49.7072238801021,-60.67583618381577L-47.000504732719236,-55.582709518963085z" style="fill:rgb(200,75,217)"/><path d="M-39.22799451591176,-61.63308783900382L-41.89291004760209,-66.74333074475064L-45.87894883995641,-63.77441119575934z" style="fill:rgb(194,70,219)"/><path d="M78.42360688456858,-113.8184625161157L53.83612448725866,-118.48710385872988L26.811129795944634,-117.89139835473719z" style="fill:rgb(83,212,212)"/><path d="M5.994290151750903,-82.23061770370289L-1.2434772483039163,-86.22311193869135L1.2377349621350182,-81.01521638335416z" style="fill:rgb(123,36,216)"/><path d="M26.811129795944634,-117.89139835473719L13.052620128881502,-89.27603872883228L17.76591502297404,-89.86532213107448zM-107.75832367416552,-33.3107049504227L-110.67112684024427,-27.707156057155718L-104.47514338614559,-38.858083776961976z" style="fill:rgb(83,212,212)"/><path d="M1.2377349621350182,-81.01521638335416L-1.2434772483039163,-86.22311193869135L-6.007950326128437,-84.7915231165939z" style="fill:rgb(131,38,218)"/><path d="M-43.193082169129,-58.67297354407504L-45.87894883995641,-63.77441119575934L-49.7072238801021,-60.67583618381577z" style="fill:rgb(200,75,217)"/><path d="M-47.000504732719236,-55.582709518963085L-53.364531988213955,-57.457376964201146L-50.637123542639074,-52.37204879503874z" style="fill:rgb(206,80,215)"/><path d="M10.746546388377036,-83.23717226432865L3.5319753287270155,-87.45087239128652L5.994290151750903,-82.23061770370289z" style="fill:rgb(116,34,214)"/><path d="M26.811129795944634,-117.89139835473719L17.76591502297404,-89.86532213107448L22.426437039312805,-90.23457148284193z" style="fill:rgb(83,212,212)"/><path d="M5.994290151750903,-82.23061770370289L3.5319753287270155,-87.45087239128652L-1.2434772483039163,-86.22311193869135z" style="fill:rgb(123,36,216)"/><path d="M-56.83802095383048,-54.12921385956262L-1.2095513854066084,-112.27552981653639L-118.34017259271232,-5.098011940965619z" style="fill:rgb(83,212,212)"/><path d="M-47.000504732719236,-55.582709518963085L-49.7072238801021,-60.67583618381577L-53.364531988213955,-57.457376964201146z" style="fill:rgb(206,80,215)"/><path d="M-50.637123542639074,-52.37204879503874L-56.83802095383048,-54.12921385956262L-54.09013600688173,-49.051156236248z" style="fill:rgb(212,85,213)"/><path d="M66.52688605881198,-116.81846947455846L60.26911917568531,-117.81879577343578L53.83612448725866,-118.48710385872988z" style="fill:rgb(83,212,212)"/><path d="M15.478659025603559,-84.0305959266329L8.30264005822895,-88.46995679492557L10.746546388377036,-83.23717226432865z" style="fill:rgb(108,33,211)"/><path d="M26.811129795944634,-117.89139835473719L22.426437039312805,-90.23457148284193L27.018048063496774,-90.38113871902948z" style="fill:rgb(83,212,212)"/><path d="M10.746546388377036,-83.23717226432865L8.30264005822895,-88.46995679492557L3.5319753287270155,-87.45087239128652z" style="fill:rgb(116,34,214)"/><path d="M-50.637123542639074,-52.37204879503874L-53.364531988213955,-57.457376964201146L-56.83802095383048,-54.12921385956262z" style="fill:rgb(212,85,213)"/><path d="M-54.09013600688173,-49.051156236248L-60.11520396253963,-50.70192691069201L-57.34713244550181,-45.63059239468144z" style="fill:rgb(217,91,210)"/><path d="M20.174676379799397,-84.60713653300749L13.052620128881502,-89.27603872883228L15.478659025603559,-84.0305959266329z" style="fill:rgb(101,32,208)"/><path d="M27.018048063496774,-90.38113871902948L31.52457530290044,-90.30298196194333L26.811129795944634,-117.89139835473719z" style="fill:rgb(83,212,212)"/><path d="M15.478659025603559,-84.0305959266329L13.052620128881502,-89.27603872883228L8.30264005822895,-88.46995679492557z" style="fill:rgb(108,33,211)"/><path d="M-54.09013600688173,-49.051156236248L-56.83802095383048,-54.12921385956262L-60.11520396253963,-50.70192691069201z" style="fill:rgb(217,91,210)"/><path d="M-96.85860435760809,-49.71594676153756L-110.67112684024427,-27.707156057155718L-118.34017259271232,-5.098011940965619z" style="fill:rgb(83,212,212)"/><path d="M-57.34713244550181,-45.63059239468144L-63.18400756569936,-47.186471163886935L-60.396099412793696,-42.1213112512457z" style="fill:rgb(222,96,207)"/><path d="M24.81855938055027,-84.96360712594694L17.76591502297404,-89.86532213107448L20.174676379799397,-84.60713653300749z" style="fill:rgb(94,32,205)"/><path d="M20.174676379799397,-84.60713653300749L17.76591502297404,-89.86532213107448L13.052620128881502,-89.27603872883228z" style="fill:rgb(101,32,208)"/><path d="M-57.34713244550181,-45.63059239468144L-60.11520396253963,-50.70192691069201L-63.18400756569936,-47.186471163886935z" style="fill:rgb(222,96,207)"/><path d="M53.83612448725866,-118.48710385872988L78.42360688456858,-113.8184625161157L66.52688605881198,-116.81846947455846z" style="fill:rgb(83,212,212)"/><path d="M-60.396099412793696,-42.1213112512457L-66.03280470861814,-43.59420659345247L-63.22547724109112,-38.53464731844093z" style="fill:rgb(226,102,203)"/><path d="M29.39421847828049,-85.0974068491896L22.426437039312805,-90.23457148284193L24.81855938055027,-84.96360712594694z" style="fill:rgb(86,32,201)"/><path d="M24.81855938055027,-84.96360712594694L22.426437039312805,-90.23457148284193L17.76591502297404,-89.86532213107448z" style="fill:rgb(94,32,205)"/><path d="M-60.396099412793696,-42.1213112512457L-63.18400756569936,-47.186471163886935L-66.03280470861814,-43.59420659345247z" style="fill:rgb(226,102,203)"/><path d="M-113.19909815056245,-22.065312417563465L-115.32844325413977,-16.40367155576348L-110.67112684024427,-27.707156057155718z" style="fill:rgb(83,212,212)"/><path d="M-63.22547724109112,-38.53464731844093L-68.65042905605546,-39.93684540450704L-65.82416818955583,-34.88230373089487z" style="fill:rgb(230,108,199)"/><path d="M29.39421847828049,-85.0974068491896L27.018048063496774,-90.38113871902948L22.426437039312805,-90.23457148284193z" style="fill:rgb(86,32,201)"/><path d="M33.885535603161436,-85.00654478609853L27.018048063496774,-90.38113871902948L29.39421847828049,-85.0974068491896z" style="fill:rgb(79,32,198)"/><path d="M-63.22547724109112,-38.53464731844093L-66.03280470861814,-43.59420659345247L-68.65042905605546,-39.93684540450704z" style="fill:rgb(230,108,199)"/><path d="M78.42360688456858,-113.8184625161157L72.58617113837992,-115.48507312030189L66.52688605881198,-116.81846947455846zM-60.11520396253963,-50.70192691069201L-56.83802095383048,-54.12921385956262L-118.34017259271232,-5.098011940965619z" style="fill:rgb(83,212,212)"/><path d="M-65.82416818955583,-34.88230373089487L-71.02623200912383,-36.22646884122486L-68.18159333272759,-31.176357880622685z" style="fill:rgb(234,114,195)"/><path d="M33.885535603161436,-85.00654478609853L31.52457530290044,-90.30298196194333L27.018048063496774,-90.38113871902948z" style="fill:rgb(79,32,198)"/><path d="M38.27640011236629,-84.6896650457149L31.52457530290044,-90.30298196194333L33.885535603161436,-85.00654478609853z" style="fill:rgb(73,33,193)"/><path d="M-65.82416818955583,-34.88230373089487L-68.65042905605546,-39.93684540450704L-71.02623200912383,-36.22646884122486z" style="fill:rgb(234,114,195)"/><path d="M-63.18400756569936,-47.186471163886935L-60.11520396253963,-50.70192691069201L-118.34017259271232,-5.098011940965619zM-118.34017259271232,-5.098011940965619L-110.67112684024427,-27.707156057155718L-115.32844325413977,-16.40367155576348zM-118.34017259271232,-5.098011940965619L-66.03280470861814,-43.59420659345247L-63.18400756569936,-47.186471163886935z" style="fill:rgb(83,212,212)"/><path d="M-68.18159333272759,-31.176357880622685L-73.15012408235977,-32.47551264014479L-70.28773506336243,-27.42922736217888z" style="fill:rgb(237,120,191)"/><path d="M38.27640011236629,-84.6896650457149L35.92985762198342,-89.99869260709063L31.52457530290044,-90.30298196194333z" style="fill:rgb(73,33,193)"/><path d="M42.550734775750485,-84.14607802023507L35.92985762198342,-89.99869260709063L38.27640011236629,-84.6896650457149z" style="fill:rgb(66,34,189)"/><path d="M-68.18159333272759,-31.176357880622685L-71.02623200912383,-36.22646884122486L-73.15012408235977,-32.47551264014479z" style="fill:rgb(237,120,191)"/><path d="M-68.65042905605546,-39.93684540450704L-66.03280470861814,-43.59420659345247L-118.34017259271232,-5.098011940965619zM-71.02623200912383,-36.22646884122486L-68.65042905605546,-39.93684540450704L-118.34017259271232,-5.098011940965619z" style="fill:rgb(83,212,212)"/><path d="M-70.28773506336243,-27.42922736217888L-75.01261003579276,-28.69673746811828L-72.1331705809733,-23.6536730817573z" style="fill:rgb(240,125,187)"/><path d="M42.550734775750485,-84.14607802023507L40.217772075820704,-89.4675279646203L35.92985762198342,-89.99869260709063z" style="fill:rgb(66,34,189)"/><path d="M-115.32844325413977,-16.40367155576348L-117.04617137065995,-10.741337505653558L-118.34017259271232,-5.098011940965619z" style="fill:rgb(83,212,212)"/><path d="M46.69255956003055,-83.37577886534162L40.217772075820704,-89.4675279646203L42.550734775750485,-84.14607802023507z" style="fill:rgb(60,35,184)"/><path d="M-70.28773506336243,-27.42922736217888L-73.15012408235977,-32.47551264014479L-75.01261003579276,-28.69673746811828z" style="fill:rgb(240,125,187)"/><path d="M-73.15012408235977,-32.47551264014479L-71.02623200912383,-36.22646884122486L-118.34017259271232,-5.098011940965619zM114.36366644558962,-88.84210698983539L26.811129795944634,-117.89139835473719L31.52457530290044,-90.30298196194333zM114.36366644558962,-88.84210698983539L78.42360688456858,-113.8184625161157L26.811129795944634,-117.89139835473719zM89.33943719593032,-109.4902413901351L84.01581315093794,-111.81952703714445L78.42360688456858,-113.8184625161157z" style="fill:rgb(83,212,212)"/><path d="M-72.1331705809733,-23.6536730817573L-76.60484237079729,-24.903222227785772L-73.70912504802756,-19.862758976870445z" style="fill:rgb(242,131,182)"/><path d="M46.69255956003055,-83.37577886534162L44.372285691208575,-88.70942760389771L40.217772075820704,-89.4675279646203z" style="fill:rgb(60,35,184)"/><path d="M50.68600996641403,-82.37946017144337L44.372285691208575,-88.70942760389771L46.69255956003055,-83.37577886534162z" style="fill:rgb(54,37,179)"/><path d="M-72.1331705809733,-23.6536730817573L-75.01261003579276,-28.69673746811828L-76.60484237079729,-24.903222227785772z" style="fill:rgb(242,131,182)"/><path d="M-75.01261003579276,-28.69673746811828L-73.15012408235977,-32.47551264014479L-118.34017259271232,-5.098011940965619zM-76.60484237079729,-24.903222227785772L-75.01261003579276,-28.69673746811828L-118.34017259271232,-5.098011940965619z" style="fill:rgb(83,212,212)"/><path d="M50.68600996641403,-82.37946017144337L48.37748334314716,-87.72502773835276L44.372285691208575,-88.70942760389771z" style="fill:rgb(54,37,179)"/><path d="M-73.70912504802756,-19.862758976870445L-77.91867258365902,-21.10833621404957L-75.00751962805747,-16.06984830057302z" style="fill:rgb(244,137,177)"/><path d="M54.51541015214627,-81.15859278841924L48.37748334314716,-87.72502773835276L50.68600996641403,-82.37946017144337z" style="fill:rgb(48,39,174)"/><path d="M-73.70912504802756,-19.862758976870445L-76.60484237079729,-24.903222227785772L-77.91867258365902,-21.10833621404957z" style="fill:rgb(244,137,177)"/><path d="M-118.34017259271232,-5.098011940965619L-77.91867258365902,-21.10833621404957L-76.60484237079729,-24.903222227785772zM99.08830990779373,-103.85434223467263L89.33943719593032,-109.4902413901351L78.42360688456858,-113.8184625161157z" style="fill:rgb(83,212,212)"/><path d="M54.51541015214627,-81.15859278841924L52.21764328305626,-86.51575135354152L48.37748334314716,-87.72502773835276z" style="fill:rgb(48,39,174)"/><path d="M-75.00751962805747,-16.06984830057302L-78.94669921073461,-17.325713019876027L-76.02104059777588,-12.288570181751558z" style="fill:rgb(245,143,172)"/><path d="M-118.34017259271232,-5.098011940965619L-78.94669921073461,-17.325713019876027L-77.91867258365902,-21.10833621404957z" style="fill:rgb(83,212,212)"/><path d="M-75.00751962805747,-16.06984830057302L-77.91867258365902,-21.10833621404957L-78.94669921073461,-17.325713019876027z" style="fill:rgb(245,143,172)"/><path d="M58.16531680428186,-79.71540051106197L52.21764328305626,-86.51575135354152L54.51541015214627,-81.15859278841924z" style="fill:rgb(42,41,169)"/><path d="M-118.34017259271232,-5.098011940965619L-79.68234161531318,-13.569224433778409L-78.94669921073461,-17.325713019876027z" style="fill:rgb(83,212,212)"/><path d="M58.16531680428186,-79.71540051106197L55.87725833442804,-85.08374642054865L52.21764328305626,-86.51575135354152z" style="fill:rgb(42,41,169)"/><path d="M-119.574124005563,11.512617602567085L-118.34017259271232,-5.098011940965619L-119.19931672410884,0.5060380661942799z" style="fill:rgb(83,212,212)"/><path d="M-76.02104059777588,-12.288570181751558L-79.68234161531318,-13.569224433778409L-76.74316768426836,-8.532789185167001z" style="fill:rgb(246,149,166)"/><path d="M114.36366644558962,-88.84210698983539L31.52457530290044,-90.30298196194333L35.92985762198342,-89.99869260709063z" style="fill:rgb(83,212,212)"/><path d="M-76.02104059777588,-12.288570181751558L-78.94669921073461,-17.325713019876027L-79.68234161531318,-13.569224433778409z" style="fill:rgb(246,149,166)"/><path d="M61.620566583338714,-78.0529108125555L55.87725833442804,-85.08374642054865L58.16531680428186,-79.71540051106197z" style="fill:rgb(37,44,163)"/><path d="M99.08830990779373,-103.85434223467263L94.37125806930713,-106.83373065045602L89.33943719593032,-109.4902413901351zM-80.11986471627908,-9.852943668602537L-79.68234161531318,-13.569224433778409L-118.34017259271232,-5.098011940965619zM114.36366644558962,-88.84210698983539L35.92985762198342,-89.99869260709063L40.217772075820704,-89.4675279646203z" style="fill:rgb(83,212,212)"/><path d="M61.620566583338714,-78.0529108125555L59.34112940351354,-83.43198296054608L55.87725833442804,-85.08374642054865z" style="fill:rgb(37,44,163)"/><path d="M-119.19931672410884,0.5060380661942799L-119.61356584534703,6.050011932776844L-119.574124005563,11.512617602567085z" style="fill:rgb(83,212,212)"/><path d="M-76.74316768426836,-8.532789185167001L-80.11986471627908,-9.852943668602537L-77.1682438127055,-4.816572970530384zM-76.74316768426836,-8.532789185167001L-79.68234161531318,-13.569224433778409L-80.11986471627908,-9.852943668602537z" style="fill:rgb(247,155,161)"/><path d="M114.36366644558962,-88.84210698983539L40.217772075820704,-89.4675279646203L44.372285691208575,-88.70942760389771z" style="fill:rgb(83,212,212)"/><path d="M64.86636005168315,-76.17498207932522L59.34112940351354,-83.43198296054608L61.620566583338714,-78.0529108125555z" style="fill:rgb(32,47,158)"/><path d="M-80.25448614299576,-6.1911048113264275L-80.11986471627908,-9.852943668602537L-118.34017259271232,-5.098011940965619zM114.36366644558962,-88.84210698983539L44.372285691208575,-88.70942760389771L48.37748334314716,-87.72502773835276zM-80.08237958180797,-2.5980630910143403L-80.25448614299576,-6.1911048113264275L-118.34017259271232,-5.098011940965619z" style="fill:rgb(83,212,212)"/><path d="M64.86636005168315,-76.17498207932522L62.59440277238498,-81.56427922732878L59.34112940351354,-83.43198296054608z" style="fill:rgb(32,47,158)"/><path d="M78.42360688456858,-113.8184625161157L114.36366644558962,-88.84210698983539L99.08830990779373,-103.85434223467263z" style="fill:rgb(83,212,212)"/><path d="M-77.1682438127055,-4.816572970530384L-80.25448614299576,-6.1911048113264275L-77.29155887337832,-1.1541510827602972zM-77.1682438127055,-4.816572970530384L-80.11986471627908,-9.852943668602537L-80.25448614299576,-6.1911048113264275z" style="fill:rgb(247,161,155)"/><path d="M67.88832788207904,-74.08630988304465L62.59440277238498,-81.56427922732878L64.86636005168315,-76.17498207932522z" style="fill:rgb(28,51,152)"/><path d="M114.36366644558962,-88.84210698983539L48.37748334314716,-87.72502773835276L52.21764328305626,-86.51575135354152zM-118.34017259271232,-5.098011940965619L-79.60079286197964,0.9117594631093092L-80.08237958180797,-2.5980630910143403zM114.36366644558962,-88.84210698983539L52.21764328305626,-86.51575135354152L55.87725833442804,-85.08374642054865z" style="fill:rgb(83,212,212)"/><path d="M67.88832788207904,-74.08630988304465L65.62266213805184,-79.48526583805018L62.59440277238498,-81.56427922732878z" style="fill:rgb(28,51,152)"/><path d="M-77.29155887337832,-1.1541510827602972L-80.08237958180797,-2.5980630910143403L-77.10935732348281,2.440126793885859zM-77.29155887337832,-1.1541510827602972L-80.25448614299576,-6.1911048113264275L-80.08237958180797,-2.5980630910143403z" style="fill:rgb(246,166,149)"/><path d="M70.67258709913553,-71.7924861928058L65.62266213805184,-79.48526583805018L67.88832788207904,-74.08630988304465z" style="fill:rgb(24,55,146)"/><path d="M-118.34017259271232,-5.098011940965619L-119.574124005563,11.512617602567085L-114.7533298691178,32.109850798236394zM-79.60079286197964,0.9117594631093092L-118.34017259271232,-5.098011940965619L-78.80806141535238,4.323924278550992zM107.48794870441634,-96.95093450144307L103.46792567052644,-100.55773460851661L99.08830990779373,-103.85434223467263zM114.36366644558962,-88.84210698983539L55.87725833442804,-85.08374642054865L59.34112940351354,-83.43198296054608zM-78.80806141535238,4.323924278550992L-118.34017259271232,-5.098011940965619L-77.70370293900584,7.624037486082502z" style="fill:rgb(83,212,212)"/><path d="M70.67258709913553,-71.7924861928058L68.41197801051435,-77.20047898383463L65.62266213805184,-79.48526583805018z" style="fill:rgb(24,55,146)"/><path d="M-77.10935732348281,2.440126793885859L-79.60079286197964,0.9117594631093092L-76.61895062894646,5.951841300340938z" style="fill:rgb(245,172,143)"/><path d="M-118.10582280681496,22.106460210741254L-119.574124005563,11.512617602567085L-119.07353704852794,16.872131212939085z" style="fill:rgb(83,212,212)"/><path d="M-77.10935732348281,2.440126793885859L-80.08237958180797,-2.5980630910143403L-79.60079286197964,0.9117594631093092z" style="fill:rgb(245,172,143)"/><path d="M114.36366644558962,-88.84210698983539L59.34112940351354,-83.43198296054608L62.59440277238498,-81.56427922732878z" style="fill:rgb(83,212,212)"/><path d="M73.2058334170228,-69.29997544439912L68.41197801051435,-77.20047898383463L70.67258709913553,-71.7924861928058z" style="fill:rgb(20,59,140)"/><path d="M-76.28845432858114,10.797814186758401L-77.70370293900584,7.624037486082502L-118.34017259271232,-5.098011940965619zM114.36366644558962,-88.84210698983539L62.59440277238498,-81.56427922732878L65.62266213805184,-79.48526583805018zM114.36366644558962,-88.84210698983539L107.48794870441634,-96.95093450144307L99.08830990779373,-103.85434223467263z" style="fill:rgb(83,212,212)"/><path d="M73.2058334170228,-69.29997544439912L70.94900114030553,-74.71633310066358L68.41197801051435,-77.20047898383463z" style="fill:rgb(20,59,140)"/><path d="M-76.61895062894646,5.951841300340938L-78.80806141535238,4.323924278550992L-75.81875429546179,9.366557023194906zM-76.61895062894646,5.951841300340938L-79.60079286197964,0.9117594631093092L-78.80806141535238,4.323924278550992z" style="fill:rgb(244,177,137)"/><path d="M75.4754248470714,-66.61617033603068L70.94900114030553,-74.71633310066358L73.2058334170228,-69.29997544439912z" style="fill:rgb(17,63,135)"/><path d="M-74.56433378853941,13.831150386022806L-76.28845432858114,10.797814186758401L-118.34017259271232,-5.098011940965619zM114.36366644558962,-88.84210698983539L65.62266213805184,-79.48526583805018L68.41197801051435,-77.20047898383463zM-119.574124005563,11.512617602567085L-118.10582280681496,22.106460210741254L-114.7533298691178,32.109850798236394z" style="fill:rgb(83,212,212)"/><path d="M75.4754248470714,-66.61617033603068L73.22104802767278,-72.04016022044648L70.94900114030553,-74.71633310066358z" style="fill:rgb(17,63,135)"/><path d="M-72.5346895713937,16.71019244364041L-74.56433378853941,13.831150386022806L-118.34017259271232,-5.098011940965619z" style="fill:rgb(83,212,212)"/><path d="M-75.81875429546179,9.366557023194906L-77.70370293900584,7.624037486082502L-74.70833365182231,12.669882191690974z" style="fill:rgb(242,182,131)"/><path d="M114.36366644558962,-88.84210698983539L68.41197801051435,-77.20047898383463L70.94900114030553,-74.71633310066358z" style="fill:rgb(83,212,212)"/><path d="M-75.81875429546179,9.366557023194906L-78.80806141535238,4.323924278550992L-77.70370293900584,7.624037486082502z" style="fill:rgb(242,182,131)"/><path d="M77.4694555561265,-63.74937323118878L73.22104802767278,-72.04016022044648L75.4754248470714,-66.61617033603068z" style="fill:rgb(14,67,129)"/><path d="M111.12680575816093,-93.04240336015818L107.48794870441634,-96.95093450144307L114.36366644558962,-88.84210698983539zM-118.34017259271232,-5.098011940965619L-70.20423803908555,19.421421275822542L-72.5346895713937,16.71019244364041zM114.36366644558962,-88.84210698983539L70.94900114030553,-74.71633310066358L73.22104802767278,-72.04016022044648z" style="fill:rgb(83,212,212)"/><path d="M77.4694555561265,-63.74937323118878L75.21617285014412,-69.18021250493393L73.22104802767278,-72.04016022044648z" style="fill:rgb(14,67,129)"/><path d="M-74.70833365182231,12.669882191690974L-76.28845432858114,10.797814186758401L-73.28848804988023,15.847534060800646z" style="fill:rgb(240,187,125)"/><path d="M-114.7533298691178,32.109850798236394L-118.10582280681496,22.106460210741254L-116.66661735331952,27.193225015498847z" style="fill:rgb(83,212,212)"/><path d="M-74.70833365182231,12.669882191690974L-77.70370293900584,7.624037486082502L-76.28845432858114,10.797814186758401z" style="fill:rgb(240,187,125)"/><path d="M79.17684881234462,-60.70881017069733L75.21617285014412,-69.18021250493393L77.4694555561265,-63.74937323118878z" style="fill:rgb(12,72,123)"/><path d="M-118.34017259271232,-5.098011940965619L-67.57911412966439,21.951735948889763L-70.20423803908555,19.421421275822542zM114.36366644558962,-88.84210698983539L73.22104802767278,-72.04016022044648L75.21617285014412,-69.18021250493393z" style="fill:rgb(83,212,212)"/><path d="M79.17684881234462,-60.70881017069733L76.9232634184214,-66.14567939945549L75.21617285014412,-69.18021250493393z" style="fill:rgb(12,72,123)"/><path d="M-67.57911412966439,21.951735948889763L-118.34017259271232,-5.098011940965619L-64.66689971656155,24.288535821506095z" style="fill:rgb(83,212,212)"/><path d="M-73.28848804988023,15.847534060800646L-74.56433378853941,13.831150386022806L-71.56128900110694,18.885406106146686z" style="fill:rgb(237,191,119)"/><path d="M114.36366644558962,-88.84210698983539L75.21617285014412,-69.18021250493393L76.9232634184214,-66.14567939945549z" style="fill:rgb(83,212,212)"/><path d="M-73.28848804988023,15.847534060800646L-76.28845432858114,10.797814186758401L-74.56433378853941,13.831150386022806z" style="fill:rgb(237,191,119)"/><path d="M80.58744856627511,-57.50464779861584L76.9232634184214,-66.14567939945549L79.17684881234462,-60.70881017069733z" style="fill:rgb(10,77,117)"/><path d="M-61.476627985699785,26.419813148615784L-64.66689971656155,24.288535821506095L-118.34017259271232,-5.098011940965619zM114.36366644558962,-88.84210698983539L76.9232634184214,-66.14567939945549L78.33212689156565,-62.946679956150305z" style="fill:rgb(83,212,212)"/><path d="M80.58744856627511,-57.50464779861584L78.33212689156565,-62.946679956150305L76.9232634184214,-66.14567939945549z" style="fill:rgb(10,77,117)"/><path d="M117.17865223846569,-84.36154757128737L114.36366644558962,-88.84210698983539L119.5529395815146,-79.61386043249193zM114.36366644558962,-88.84210698983539L78.33212689156565,-62.946679956150305L79.43359750155608,-59.594247999632636zM114.36366644558962,-88.84210698983539L79.43359750155608,-59.594247999632636L80.21960139862335,-56.100344913912885zM114.36366644558962,-88.84210698983539L80.21960139862335,-56.100344913912885L80.68325825853096,-52.477819168108134z" style="fill:rgb(83,212,212)"/><path d="M-102.96562593754138,50.584875671723765L-109.50365157066405,41.3420669321453L-106.2991639958407,46.30690004543239z" style="fill:rgb(24,55,146)"/><path d="M114.36366644558962,-88.84210698983539L80.68325825853096,-52.477819168108134L80.81899587932378,-48.7403830260506zM114.36366644558962,-88.84210698983539L80.81899587932378,-48.7403830260506L80.62257965598745,-44.902572154929274z" style="fill:rgb(83,212,212)"/><path d="M-102.96562593754138,50.584875671723765L-106.1720782032318,45.612548728137114L-109.50365157066405,41.3420669321453z" style="fill:rgb(24,55,146)"/><path d="M122.91074493315858,-69.37777104403128L121.46899462838998,-74.61379290883126L119.5529395815146,-79.61386043249193z" style="fill:rgb(83,212,212)"/><path d="M123.53279008349818,-69.05767378495523L121.46899462838998,-74.61379290883126L122.91074493315858,-69.37777104403128zM123.53279008349818,-69.05767378495523L122.91074493315858,-69.37777104403128L124.97925145307084,-63.81575072484559z" style="fill:rgb(246,166,149)"/><path d="M114.36366644558962,-88.84210698983539L80.62257965598745,-44.902572154929274L80.09124784077305,-40.9797119683845zM119.5529395815146,-79.61386043249193L114.36366644558962,-88.84210698983539L123.67517516095702,-46.46084112644247zM114.36366644558962,-88.84210698983539L80.09124784077305,-40.9797119683845L79.22375902488642,-36.98783682098815zM114.36366644558962,-88.84210698983539L79.22375902488642,-36.98783682098815L78.02044607311277,-32.94365115880317z" style="fill:rgb(83,212,212)"/><path d="M124.97925145307084,-63.81575072484559L122.91074493315858,-69.37777104403128L123.86376556978615,-63.92389010869899zM124.97925145307084,-63.81575072484559L123.86376556978615,-63.92389010869899L125.93929364289936,-58.35754796019786z" style="fill:rgb(247,161,155)"/><path d="M122.91074493315858,-69.37777104403128L119.5529395815146,-79.61386043249193L123.67517516095702,-46.46084112644247zM124.31547489580787,-58.27190488922586L123.86376556978615,-63.92389010869899L122.91074493315858,-69.37777104403128z" style="fill:rgb(83,212,212)"/><path d="M125.93929364289936,-58.35754796019786L123.86376556978615,-63.92389010869899L124.31547489580787,-58.27190488922586zM125.93929364289936,-58.35754796019786L124.31547489580787,-58.27190488922586L126.40038926465519,-52.702870265362066z" style="fill:rgb(247,155,161)"/><path d="M123.67517516095702,-46.46084112644247L124.31547489580787,-58.27190488922586L122.91074493315858,-69.37777104403128z" style="fill:rgb(83,212,212)"/><path d="M126.40038926465519,-52.702870265362066L124.31547489580787,-58.27190488922586L124.25536759468422,-52.44321882239903zM126.40038926465519,-52.702870265362066L124.25536759468422,-52.44321882239903L126.35207629844211,-46.87317964511868z" style="fill:rgb(246,149,166)"/><path d="M123.67517516095702,-46.46084112644247L124.25536759468422,-52.44321882239903L124.31547489580787,-58.27190488922586z" style="fill:rgb(83,212,212)"/><path d="M126.35207629844211,-46.87317964511868L124.25536759468422,-52.44321882239903L123.67517516095702,-46.46084112644247zM126.35207629844211,-46.87317964511868L123.67517516095702,-46.46084112644247L125.78611741682147,-40.89150070070761z" style="fill:rgb(245,143,172)"/><path d="M-118.34017259271232,-5.098011940965619L-114.7533298691178,32.109850798236394L17.50222053917526,131.38646658229328z" style="fill:rgb(83,212,212)"/><path d="M125.78611741682147,-40.89150070070761L123.67517516095702,-46.46084112644247L122.56905607633205,-40.34929454352247zM125.78611741682147,-40.89150070070761L122.56905607633205,-40.34929454352247L124.69668783372106,-34.782388060043075z" style="fill:rgb(244,137,177)"/><path d="M124.69668783372106,-34.782388060043075L120.93378267648633,-34.13456544451332L123.08056137895896,-28.571827163784125z" style="fill:rgb(242,131,182)"/><path d="M123.67517516095702,-46.46084112644247L120.93378267648633,-34.13456544451332L122.56905607633205,-40.34929454352247z" style="fill:rgb(83,212,212)"/><path d="M124.69668783372106,-34.782388060043075L122.56905607633205,-40.34929454352247L120.93378267648633,-34.13456544451332z" style="fill:rgb(242,131,182)"/><path d="M17.50222053917526,131.38646658229328L-61.476627985699785,26.419813148615784L-118.34017259271232,-5.098011940965619zM-24.814333061616292,138.08648417129578L-114.7533298691178,32.109850798236394L-112.36523005581486,36.83367483822479zM116.07693018049842,-21.505995656311665L120.93378267648633,-34.13456544451332L123.67517516095702,-46.46084112644247z" style="fill:rgb(83,212,212)"/><path d="M123.08056137895896,-28.571827163784125L118.76892302601154,-27.84396328667805L120.9372898780039,-22.287122308083525zM123.08056137895896,-28.571827163784125L120.93378267648633,-34.13456544451332L118.76892302601154,-27.84396328667805z" style="fill:rgb(240,125,187)"/><path d="M-112.36523005581486,36.83367483822479L-109.50365157066405,41.3420669321453L-24.814333061616292,138.08648417129578z" style="fill:rgb(83,212,212)"/><path d="M-21.651619229683728,143.1809583485748L-106.1720782032318,45.612548728137114L-102.96562593754138,50.584875671723765z" style="fill:rgb(26,52,150)"/><path d="M120.9372898780039,-22.287122308083525L116.07693018049842,-21.505995656311665L118.2692925976765,-15.956756834514248zM120.9372898780039,-22.287122308083525L118.76892302601154,-27.84396328667805L116.07693018049842,-21.505995656311665z" style="fill:rgb(237,120,191)"/><path d="M120.93378267648633,-34.13456544451332L116.07693018049842,-21.505995656311665L118.76892302601154,-27.84396328667805zM-109.50365157066405,41.3420669321453L-106.1720782032318,45.612548728137114L-24.814333061616292,138.08648417129578z" style="fill:rgb(83,212,212)"/><path d="M118.2692925976765,-15.956756834514248L112.86333858911172,-15.150209617247224L115.08204962024917,-9.6102469311749zM118.2692925976765,-15.956756834514248L116.07693018049842,-21.505995656311665L112.86333858911172,-15.150209617247224z" style="fill:rgb(234,114,195)"/><path d="M78.02044607311277,-32.94365115880317L17.50222053917526,131.38646658229328L114.36366644558962,-88.84210698983539z" style="fill:rgb(83,212,212)"/><path d="M115.08204962024917,-9.6102469311749L109.13680836417545,-8.80701365060294L111.38414543175216,-3.2779470053359905zM115.08204962024917,-9.6102469311749L112.86333858911172,-15.150209617247224L109.13680836417545,-8.80701365060294z" style="fill:rgb(230,108,199)"/><path d="M17.50222053917526,131.38646658229328L123.67517516095702,-46.46084112644247L114.36366644558962,-88.84210698983539zM109.13680836417545,-8.80701365060294L112.86333858911172,-15.150209617247224L116.07693018049842,-21.505995656311665zM-58.01881529561281,28.3342386867053L-61.476627985699785,26.419813148615784L17.50222053917526,131.38646658229328zM-54.30546216774592,30.021259932631832L-58.01881529561281,28.3342386867053L17.50222053917526,131.38646658229328zM-50.35002148944528,31.471192993672563L-54.30546216774592,30.021259932631832L17.50222053917526,131.38646658229328zM-46.167386160630606,32.67529955438494L-50.35002148944528,31.471192993672563L17.50222053917526,131.38646658229328zM17.50222053917526,131.38646658229328L78.02044607311277,-32.94365115880317L76.48329975945994,-28.86443576726238zM-41.77386172804431,33.62589159500124L-46.167386160630606,32.67529955438494L17.50222053917526,131.38646658229328zM17.50222053917526,131.38646658229328L76.48329975945994,-28.86443576726238L74.61599777126742,-24.767961726760753zM-37.187088728482074,34.31639941561416L-41.77386172804431,33.62589159500124L17.50222053917526,131.38646658229328zM17.50222053917526,131.38646658229328L74.61599777126742,-24.767961726760753L72.42394146139374,-20.67241541510287zM-32.42600443507255,34.74145753940807L-37.187088728482074,34.31639941561416L17.50222053917526,131.38646658229328zM17.50222053917526,131.38646658229328L72.42394146139374,-20.67241541510287L69.91426820295577,-16.596275511957828zM-27.51073614210465,34.89697063530511L-32.42600443507255,34.74145753940807L17.50222053917526,131.38646658229328zM17.50222053917526,131.38646658229328L69.91426820295577,-16.596275511957828L67.0958698041789,-12.558210536694261zM-22.462516731555596,34.78017807612383L-27.51073614210465,34.89697063530511L17.50222053917526,131.38646658229328zM17.50222053917526,131.38646658229328L67.0958698041789,-12.558210536694261L63.97937949448112,-8.576969596345545zM17.50222053917526,131.38646658229328L-17.303570591555072,34.38970294057784L-22.462516731555596,34.78017807612383zM17.50222053917526,131.38646658229328L63.97937949448112,-8.576969596345545L60.57712727882452,-4.6712492915300405zM-12.056999133884755,33.72560204369856L-17.303570591555072,34.38970294057784L17.50222053917526,131.38646658229328zM17.50222053917526,131.38646658229328L60.57712727882452,-4.6712492915300405L56.90312294958863,-0.8595776069264606zM17.50222053917526,131.38646658229328L116.07693018049842,-21.505995656311665L123.67517516095702,-46.46084112644247zM-6.746632413950273,32.78938614268275L-12.056999133884755,33.72560204369856L17.50222053917526,131.38646658229328zM17.50222053917526,131.38646658229328L56.90312294958863,-0.8595776069264606L52.97297108144439,2.839819748277321zM-1.3968875554398843,31.584044223339976L-6.746632413950273,32.78938614268275L17.50222053917526,131.38646658229328zM17.50222053917526,131.38646658229328L52.97297108144439,2.839819748277321L48.8038230703093,6.409146195010975zM17.50222053917526,131.38646658229328L3.967386118305755,30.11404571596126L-1.3968875554398843,31.584044223339976zM17.50222053917526,131.38646658229328L48.8038230703093,6.409146195010975L44.41424744015408,9.831161818125288zM17.50222053917526,131.38646658229328L9.321073681844675,28.385330592398248L3.967386118305755,30.11404571596126zM17.50222053917526,131.38646658229328L44.41424744015408,9.831161818125288L39.824156293158275,13.08931292956331zM14.63896180037118,26.405289833858394L9.321073681844675,28.385330592398248L17.50222053917526,131.38646658229328zM17.50222053917526,131.38646658229328L39.824156293158275,13.08931292956331L35.054654453115795,16.16784859330827zM17.50222053917526,131.38646658229328L19.89591749305443,24.182725025550635L14.63896180037118,26.405289833858394zM17.50222053917526,131.38646658229328L35.054654453115795,16.16784859330827L30.12792239871033,19.05194138036935zM17.50222053917526,131.38646658229328L25.0670553530551,21.727788393234892L19.89591749305443,24.182725025550635zM17.50222053917526,131.38646658229328L30.12792239871033,19.05194138036935L25.0670553530551,21.727788393234892zM17.50222053917526,131.38646658229328L109.13680836417545,-8.80701365060294L116.07693018049842,-21.505995656311665z" style="fill:rgb(83,212,212)"/><path d="M111.38414543175216,-3.2779470053359905L109.13680836417545,-8.80701365060294L22.028020217906214,127.56361912745498z" style="fill:rgb(228,104,202)"/><path d="M-21.651619229683728,143.1809583485748L-24.814333061616292,138.08648417129578L-106.1720782032318,45.612548728137114z" style="fill:rgb(26,52,150)"/><path d="M-114.7533298691178,32.109850798236394L-24.814333061616292,138.08648417129578L17.50222053917526,131.38646658229328z" style="fill:rgb(83,212,212)"/><path d="M111.38414543175216,-3.2779470053359905L22.028020217906214,127.56361912745498L24.960161684148677,132.77711744738576z" style="fill:rgb(228,104,202)"/><path d="M109.13680836417545,-8.80701365060294L17.50222053917526,131.38646658229328L22.028020217906214,127.56361912745498z" style="fill:rgb(83,212,212)"/><path d="M-17.24092152337572,144.97448260277176L-24.814333061616292,138.08648417129578L-21.651619229683728,143.1809583485748z" style="fill:rgb(57,36,182)"/><path d="M-11.843199832180195,144.7605275200018L-20.389551698948512,139.8724678622217L-17.24092152337572,144.97448260277176z" style="fill:rgb(102,32,209)"/><path d="M-17.24092152337572,144.97448260277176L-20.389551698948512,139.8724678622217L-24.814333061616292,138.08648417129578z" style="fill:rgb(57,36,182)"/><path d="M-11.843199832180195,144.7605275200018L-14.967943513503254,139.64611776892835L-20.389551698948512,139.8724678622217z" style="fill:rgb(102,32,209)"/><path d="M-24.814333061616292,138.08648417129578L-20.389551698948512,139.8724678622217L-14.967943513503254,139.64611776892835z" style="fill:rgb(83,212,212)"/><path d="M14.982016546086728,138.79815313824L-14.967943513503254,139.64611776892835L-11.843199832180195,144.7605275200018z" style="fill:rgb(127,37,217)"/><path d="M-24.814333061616292,138.08648417129578L-14.967943513503254,139.64611776892835L17.50222053917526,131.38646658229328z" style="fill:rgb(83,212,212)"/><path d="M14.982016546086728,138.79815313824L11.990388922603358,133.6152998771116L-14.967943513503254,139.64611776892835z" style="fill:rgb(127,37,217)"/><path d="M24.960161684148677,132.77711744738576L17.50222053917526,131.38646658229328L20.463899260053083,136.5846918740636z" style="fill:rgb(197,72,218)"/><path d="M20.463899260053083,136.5846918740636L11.990388922603358,133.6152998771116L14.982016546086728,138.79815313824z" style="fill:rgb(152,45,222)"/><path d="M24.960161684148677,132.77711744738576L22.028020217906214,127.56361912745498L17.50222053917526,131.38646658229328z" style="fill:rgb(197,72,218)"/><path d="M-14.967943513503254,139.64611776892835L11.990388922603358,133.6152998771116L17.50222053917526,131.38646658229328z" style="fill:rgb(83,212,212)"/><path d="M20.463899260053083,136.5846918740636L17.50222053917526,131.38646658229328L11.990388922603358,133.6152998771116z" style="fill:rgb(152,45,222)"/></svg>
