<?xml version="1.0" encoding="UTF-8"?>
<!-- Generated by jsxcad -->
<!DOCTYPE svg PUBLIC "-//W3C//DTD SVG 1.1 Tiny//EN" "http://www.w3.org/Graphics/SVG/1.1/DTD/svg11-tiny.dtd">
<svg viewBox="-250 -250 500 500" width="500" height="500" xmlns="http://www.w3.org/2000/svg"><path d="M-34.30983255539588,-81.86195587231441L-22.702736106113907,-105.1646626700321L-33.66809810526609,-99.80395001378585zM-34.30983255539588,-81.86195587231441L-17.86143828155658,-106.86592009821709L-22.702736106113907,-105.1646626700321zM-49.276406390789546,-72.20715296603703L-33.66809810526609,-99.80395001378585L-43.18020833349882,-95.1536919729988zM-49.276406390789546,-72.20715296603703L-43.18020833349882,-95.1536919729988L-48.27589747530131,-91.87990732192328zM-18.188951942882756,-89.73515673936569L-1.3864004969848103,-112.65532497478245L-17.86143828155658,-106.86592009821709zM-62.6151972240894,-61.06055677724112L-48.27589747530131,-91.87990732192328L-61.17565690735847,-83.59231250128471zM-1.4118973238688737,-95.58030303329059L15.22064713823875,-116.29628057194729L-1.3864004969848103,-112.65532497478245zM-73.88232981653931,-48.75454964047656L-61.17565690735847,-83.59231250128471L-62.227859395256644,-82.91630164819806zM-34.30983255539588,-81.86195587231441L-18.188951942882756,-89.73515673936569L-17.86143828155658,-106.86592009821709zM-49.276406390789546,-72.20715296603703L-34.30983255539588,-81.86195587231441L-33.66809810526609,-99.80395001378585zM-73.88232981653931,-48.75454964047656L-62.227859395256644,-82.91630164819806L-71.93778491581342,-74.87301072250736zM-18.188951942882756,-89.73515673936569L-1.4118973238688737,-95.58030303329059L-1.3864004969848103,-112.65532497478245z" style="fill:rgb(83,212,212)"/><path d="M-15.293172989739384,-83.82459347336862L-34.30983255539588,-81.86195587231441L-31.331159175941302,-75.99515524396301z" style="fill:rgb(162,50,222)"/><path d="M-62.6151972240894,-61.06055677724112L-49.276406390789546,-72.20715296603703L-48.27589747530131,-91.87990732192328zM15.502072666476355,-99.19660851223381L20.15271235481281,-117.37759324841215L15.22064713823875,-116.29628057194729z" style="fill:rgb(83,212,212)"/><path d="M-31.331159175941302,-75.99515524396301L-49.276406390789546,-72.20715296603703L-46.21326855538474,-66.3787749031961z" style="fill:rgb(183,62,221)"/><path d="M1.4044988213835383,-89.62169885883951L-18.188951942882756,-89.73515673936569L-15.293172989739384,-83.82459347336862z" style="fill:rgb(139,40,220)"/><path d="M-15.293172989739384,-83.82459347336862L-18.188951942882756,-89.73515673936569L-34.30983255539588,-81.86195587231441z" style="fill:rgb(162,50,222)"/><path d="M-31.331159175941302,-75.99515524396301L-34.30983255539588,-81.86195587231441L-49.276406390789546,-72.20715296603703z" style="fill:rgb(183,62,221)"/><path d="M15.502072666476355,-99.19660851223381L31.407754340873296,-118.31297682619677L20.15271235481281,-117.37759324841215zM-82.67073459512046,-35.663492060642575L-71.93778491581342,-74.87301072250736L-79.27873883554184,-68.7920748059912zM-82.67073459512046,-35.663492060642575L-79.27873883554184,-68.7920748059912L-80.01170477395259,-68.00299506982833z" style="fill:rgb(83,212,212)"/><path d="M1.4044988213835383,-89.62169885883951L-1.4118973238688737,-95.58030303329059L-18.188951942882756,-89.73515673936569z" style="fill:rgb(139,40,220)"/><path d="M-1.4118973238688737,-95.58030303329059L15.502072666476355,-99.19660851223381L15.22064713823875,-116.29628057194729zM-73.88232981653931,-48.75454964047656L-62.6151972240894,-61.06055677724112L-61.17565690735847,-83.59231250128471z" style="fill:rgb(83,212,212)"/><path d="M-46.21326855538474,-66.3787749031961L-62.6151972240894,-61.06055677724112L-59.46811436839187,-55.26447143732927z" style="fill:rgb(203,77,216)"/><path d="M18.244452398862602,-93.18702749061656L-1.4118973238688737,-95.58030303329059L1.4044988213835383,-89.62169885883951z" style="fill:rgb(115,34,214)"/><path d="M-46.21326855538474,-66.3787749031961L-49.276406390789546,-72.20715296603703L-62.6151972240894,-61.06055677724112z" style="fill:rgb(203,77,216)"/><path d="M32.0163016696816,-100.43300573185974L41.272061470651046,-119.13278384638375L31.407754340873296,-118.31297682619677z" style="fill:rgb(83,212,212)"/><path d="M18.244452398862602,-93.18702749061656L15.502072666476355,-99.19660851223381L-1.4118973238688737,-95.58030303329059z" style="fill:rgb(115,34,214)"/><path d="M-88.62096848287612,-22.202525719189055L-80.01170477395259,-68.00299506982833L-85.11530986760006,-62.508619048876824z" style="fill:rgb(83,212,212)"/><path d="M-59.46811436839187,-55.26447143732927L-62.6151972240894,-61.06055677724112L-73.88232981653931,-48.75454964047656z" style="fill:rgb(220,94,208)"/><path d="M15.502072666476355,-99.19660851223381L32.0163016696816,-100.43300573185974L31.407754340873296,-118.31297682619677zM-82.67073459512046,-35.663492060642575L-73.88232981653931,-48.75454964047656L-71.93778491581342,-74.87301072250736z" style="fill:rgb(83,212,212)"/><path d="M-59.46811436839187,-55.26447143732927L-73.88232981653931,-48.75454964047656L-70.65412745462008,-42.98401505749076z" style="fill:rgb(220,94,208)"/><path d="M32.0163016696816,-100.43300573185974L46.59305766442767,-118.77331788892309L41.272061470651046,-119.13278384638375z" style="fill:rgb(83,212,212)"/><path d="M34.69187845412881,-94.37115486335095L15.502072666476355,-99.19660851223381L18.244452398862602,-93.18702749061656z" style="fill:rgb(92,32,204)"/><path d="M-91.43580181386575,-8.82413512426132L-85.11530986760006,-62.508619048876824L-86.8456756422804,-60.645781587713635z" style="fill:rgb(83,212,212)"/><path d="M34.69187845412881,-94.37115486335095L32.0163016696816,-100.43300573185974L15.502072666476355,-99.19660851223381z" style="fill:rgb(92,32,204)"/><path d="M-70.65412745462008,-42.98401505749076L-73.88232981653931,-48.75454964047656L-82.67073459512046,-35.663492060642575z" style="fill:rgb(233,112,197)"/><path d="M47.58208897727432,-99.19473064711887L60.18662346253918,-117.85502845492275L46.59305766442767,-118.77331788892309zM-88.62096848287612,-22.202525719189055L-82.67073459512046,-35.663492060642575L-80.01170477395259,-68.00299506982833zM32.0163016696816,-100.43300573185974L47.58208897727432,-99.19473064711887L46.59305766442767,-118.77331788892309z" style="fill:rgb(83,212,212)"/><path d="M-70.65412745462008,-42.98401505749076L-82.67073459512046,-35.663492060642575L-79.36677058213976,-29.911333010366747z" style="fill:rgb(233,112,197)"/><path d="M50.199961378508355,-93.08124991258464L32.0163016696816,-100.43300573185974L34.69187845412881,-94.37115486335095z" style="fill:rgb(71,33,192)"/><path d="M-116.95203847631572,14.683606105286685L-86.8456756422804,-60.645781587713635L-93.7909784861608,-53.16871205496763z" style="fill:rgb(83,212,212)"/><path d="M50.199961378508355,-93.08124991258464L47.58208897727432,-99.19473064711887L32.0163016696816,-100.43300573185974z" style="fill:rgb(71,33,192)"/><path d="M-116.95203847631572,14.683606105286685L-93.7909784861608,-53.16871205496763L-105.25304078437631,-36.48601504214298zM61.647065763378066,-95.45187107711133L61.30329967220181,-117.7795864287151L60.18662346253918,-117.85502845492275zM-91.43580181386575,-8.82413512426132L-88.62096848287612,-22.202525719189055L-85.11530986760006,-62.508619048876824z" style="fill:rgb(83,212,212)"/><path d="M-79.36677058213976,-29.911333010366747L-82.67073459512046,-35.663492060642575L-88.62096848287612,-22.202525719189055z" style="fill:rgb(242,130,183)"/><path d="M61.647065763378066,-95.45187107711133L71.65930119948572,-115.2077553066602L61.30329967220181,-117.7795864287151zM47.58208897727432,-99.19473064711887L61.647065763378066,-95.45187107711133L60.18662346253918,-117.85502845492275z" style="fill:rgb(83,212,212)"/><path d="M-79.36677058213976,-29.911333010366747L-88.62096848287612,-22.202525719189055L-85.24940163974483,-16.46123512762771z" style="fill:rgb(242,130,183)"/><path d="M64.21829533299729,-89.28958247987984L47.58208897727432,-99.19473064711887L50.199961378508355,-93.08124991258464z" style="fill:rgb(51,38,177)"/><path d="M-116.95203847631572,14.683606105286685L-105.25304078437631,-36.48601504214298L-113.19435558993864,-19.239380502684117z" style="fill:rgb(83,212,212)"/><path d="M64.21829533299729,-89.28958247987984L61.647065763378066,-95.45187107711133L47.58208897727432,-99.19473064711887z" style="fill:rgb(51,38,177)"/><path d="M73.66826306054574,-89.24998926633498L79.55728787403523,-113.24634786847784L71.65930119948572,-115.2077553066602z" style="fill:rgb(83,212,212)"/><path d="M-85.24940163974483,-16.46123512762771L-88.62096848287612,-22.202525719189055L-91.43580181386575,-8.82413512426132z" style="fill:rgb(246,149,167)"/><path d="M73.66826306054574,-89.24998926633498L80.34856717617507,-112.8602582796535L79.55728787403523,-113.24634786847784zM61.647065763378066,-95.45187107711133L73.66826306054574,-89.24998926633498L71.65930119948572,-115.2077553066602z" style="fill:rgb(83,212,212)"/><path d="M-85.24940163974483,-16.46123512762771L-91.43580181386575,-8.82413512426132L-88.00775863194157,-3.085946026027276z" style="fill:rgb(246,149,167)"/><path d="M76.20592574891002,-83.0440509639874L61.647065763378066,-95.45187107711133L64.21829533299729,-89.28958247987984z" style="fill:rgb(34,46,160)"/><path d="M-116.95203847631572,14.683606105286685L-113.19435558993864,-19.239380502684117L-117.20321082811121,-1.981002568468753zM83.13048417355725,-80.72114205797153L85.87477427745945,-110.16380483795595L80.34856717617507,-112.8602582796535z" style="fill:rgb(83,212,212)"/><path d="M76.20592574891002,-83.0440509639874L73.66826306054574,-89.24998926633498L61.647065763378066,-95.45187107711133z" style="fill:rgb(34,46,160)"/><path d="M73.66826306054574,-89.24998926633498L83.13048417355725,-80.72114205797153L80.34856717617507,-112.8602582796535z" style="fill:rgb(83,212,212)"/><path d="M-88.00775863194157,-3.085946026027276L-91.43580181386575,-8.82413512426132L-90.89898433477235,3.9888244055488093z" style="fill:rgb(246,167,149)"/><path d="M89.5709535508025,-70.09419802873079L87.75502392729611,-109.24637849270563L85.87477427745945,-110.16380483795595z" style="fill:rgb(83,212,212)"/><path d="M-88.00775863194157,-3.085946026027276L-90.89898433477235,3.9888244055488093L-87.42862158655444,9.731902877202256z" style="fill:rgb(246,167,149)"/><path d="M85.64968452884975,-74.479103347583L73.66826306054574,-89.24998926633498L76.20592574891002,-83.0440509639874z" style="fill:rgb(21,57,142)"/><path d="M-116.95203847631572,14.683606105286685L-97.07873646587093,54.883505009319535L-86.8456756422804,-60.645781587713635z" style="fill:rgb(83,212,212)"/><path d="M85.64968452884975,-74.479103347583L83.13048417355725,-80.72114205797153L73.66826306054574,-89.24998926633498z" style="fill:rgb(21,57,142)"/><path d="M83.13048417355725,-80.72114205797153L89.5709535508025,-70.09419802873079L85.87477427745945,-110.16380483795595z" style="fill:rgb(83,212,212)"/><path d="M-87.42862158655444,9.731902877202256L-90.89898433477235,3.9888244055488093L-86.89684464540859,15.735055417180957zM-87.42862158655444,9.731902877202256L-86.89684464540859,15.735055417180957L-83.40121615603863,21.491198226693594z" style="fill:rgb(242,183,130)"/><path d="M92.08864973107319,-63.82581860951132L83.13048417355725,-80.72114205797153L85.64968452884975,-74.479103347583z" style="fill:rgb(12,71,124)"/><path d="M89.5709535508025,-70.09419802873079L92.60904716800086,-57.70151976945649L87.75502392729611,-109.24637849270563zM-97.07873646587093,54.883505009319535L-90.89898433477235,3.9888244055488093L-91.43580181386575,-8.82413512426132z" style="fill:rgb(83,212,212)"/><path d="M92.08864973107319,-63.82581860951132L89.5709535508025,-70.09419802873079L83.13048417355725,-80.72114205797153z" style="fill:rgb(12,71,124)"/><path d="M-116.95203847631572,14.683606105286685L-112.22978462407329,30.10637051729412L-97.07873646587093,54.883505009319535zM98.60757261531145,5.996806617861235L95.33581090526364,-105.5474224168785L87.75502392729611,-109.24637849270563zM-95.54390279389501,57.393491504191225L-86.89684464540859,15.735055417180957L-90.89898433477235,3.9888244055488093z" style="fill:rgb(83,212,212)"/><path d="M119.13471931410793,-74.90801426378111L116.76381331155507,-81.25686832611508L121.21174461449031,-65.29762793444051z" style="fill:rgb(246,167,149)"/><path d="M98.60757261531145,5.996806617861235L107.95246380888477,-94.80258515945977L95.33581090526364,-105.5474224168785z" style="fill:rgb(83,212,212)"/><path d="M119.13471931410793,-74.90801426378111L121.21174461449031,-65.29762793444051L123.59922708699547,-58.927684661113915z" style="fill:rgb(246,167,149)"/><path d="M-97.07873646587093,54.883505009319535L-95.54390279389501,57.393491504191225L-90.89898433477235,3.9888244055488093zM-90.94101158676659,64.9207903815867L-79.4413901883349,25.91284456010341L-86.89684464540859,15.735055417180957zM98.60757261531145,5.996806617861235L116.76381331155507,-81.25686832611508L107.95246380888477,-94.80258515945977zM-95.54390279389501,57.393491504191225L-90.94101158676659,64.9207903815867L-86.89684464540859,15.735055417180957z" style="fill:rgb(83,212,212)"/><path d="M123.59922708699547,-58.927684661113915L121.21174461449031,-65.29762793444051L120.87458709469503,-47.464147434037216zM123.59922708699547,-58.927684661113915L120.87458709469503,-47.464147434037216L123.30441638006575,-41.090854397827414z" style="fill:rgb(246,149,167)"/><path d="M-83.27850138083555,77.45160853594135L-68.69138873112007,34.04428793426808L-79.4413901883349,25.91284456010341zM98.60757261531145,5.996806617861235L121.21174461449031,-65.29762793444051L116.76381331155507,-81.25686832611508zM-90.94101158676659,64.9207903815867L-83.27850138083555,77.45160853594135L-79.4413901883349,25.91284456010341zM96.90893402955237,9.455523529599503L92.60904716800086,-57.70151976945649L91.97983749154362,-43.97991961315722z" style="fill:rgb(83,212,212)"/><path d="M123.30441638006575,-41.090854397827414L120.87458709469503,-47.464147434037216L115.52237802267108,-28.44452259337916zM123.30441638006575,-41.090854397827414L115.52237802267108,-28.44452259337916L118.02121825174143,-22.08665057724049z" style="fill:rgb(242,130,183)"/><path d="M-72.58221459690007,94.94368269872929L-54.96800627567992,39.7053422672676L-68.69138873112007,34.04428793426808zM98.60757261531145,5.996806617861235L120.87458709469503,-47.464147434037216L121.21174461449031,-65.29762793444051zM91.83101924694593,19.79499449730703L91.97983749154362,-43.97991961315722L87.56733900870213,-29.46273995545782zM-83.27850138083555,77.45160853594135L-72.58221459690007,94.94368269872929L-68.69138873112007,34.04428793426808zM98.60757261531145,5.996806617861235L115.52237802267108,-28.44452259337916L120.87458709469503,-47.464147434037216zM96.90893402955237,9.455523529599503L98.60757261531145,5.996806617861235L92.60904716800086,-57.70151976945649zM-58.914068505149764,117.29577142071655L-38.760016144010756,42.5589257540509L-54.96800627567992,39.7053422672676zM83.43130823283737,36.89819874547284L87.56733900870213,-29.46273995545782L79.43320368410228,-14.761257609427071zM91.83101924694593,19.79499449730703L96.90893402955237,9.455523529599503L91.97983749154362,-43.97991961315722zM-72.58221459690007,94.94368269872929L-58.914068505149764,117.29577142071655L-54.96800627567992,39.7053422672676zM71.81654574020756,60.54776015826728L79.43320368410228,-14.761257609427071L67.83463182126836,-0.534722226608474zM83.43130823283737,36.89819874547284L91.83101924694593,19.79499449730703L87.56733900870213,-29.46273995545782zM-42.31835188095364,142.04499939860523L-20.714943372771387,42.38798725280437L-38.760016144010756,42.5589257540509zM57.15926417351295,90.39239971755052L67.83463182126836,-0.534722226608474L53.22696200408751,12.549625752119967z" style="fill:rgb(83,212,212)"/><path d="M118.02121825174143,-22.08665057724049L115.52237802267108,-28.44452259337916L43.62275154899227,117.9549798665124z" style="fill:rgb(234,115,195)"/><path d="M-22.598867476454327,140.92751431031627L-1.6130396123591244,39.12308593938232L-20.714943372771387,42.38798725280437zM71.81654574020756,60.54776015826728L83.43130823283737,36.89819874547284L79.43320368410228,-14.761257609427071zM-1.7580912989293975,136.26304543708292L17.67545343394424,32.85999716549808L-1.6130396123591244,39.12308593938232zM19.299688680791576,131.55000804445828L36.246720795069336,23.862621079920636L17.67545343394424,32.85999716549808zM39.642437528656046,123.63352494697557L53.22696200408751,12.549625752119967L36.246720795069336,23.862621079920636zM-58.914068505149764,117.29577142071655L-42.31835188095364,142.04499939860523L-38.760016144010756,42.5589257540509zM57.15926417351295,90.39239971755052L71.81654574020756,60.54776015826728L67.83463182126836,-0.534722226608474zM-42.31835188095364,142.04499939860523L-22.598867476454327,140.92751431031627L-20.714943372771387,42.38798725280437z" style="fill:rgb(83,212,212)"/><path d="M118.02121825174143,-22.08665057724049L43.62275154899227,117.9549798665124L46.845430036244515,123.9992323915126z" style="fill:rgb(234,115,195)"/><path d="M-22.598867476454327,140.92751431031627L-1.7580912989293975,136.26304543708292L-1.6130396123591244,39.12308593938232zM39.642437528656046,123.63352494697557L57.15926417351295,90.39239971755052L53.22696200408751,12.549625752119967zM-58.914068505149764,117.29577142071655L-46.11940708327286,138.21941866527936L-44.81692665432385,140.14773637262226zM-1.7580912989293975,136.26304543708292L19.299688680791576,131.55000804445828L17.67545343394424,32.85999716549808zM-58.914068505149764,117.29577142071655L-44.81692665432385,140.14773637262226L-43.01629605709545,141.69803335622416zM-58.914068505149764,117.29577142071655L-43.01629605709545,141.69803335622416L-42.31835188095364,142.04499939860523zM19.299688680791576,131.55000804445828L39.642437528656046,123.63352494697557L36.246720795069336,23.862621079920636z" style="fill:rgb(83,212,212)"/><path d="M-41.09003096301932,145.93104097167318L-46.11940708327286,138.21941866527936L-42.392481875269795,144.00217473752073z" style="fill:rgb(21,57,142)"/><path d="M-39.29306136106192,147.48365938066485L-44.81692665432385,140.14773637262226L-41.09003096301932,145.93104097167318z" style="fill:rgb(34,46,160)"/><path d="M-41.09003096301932,145.93104097167318L-44.81692665432385,140.14773637262226L-46.11940708327286,138.21941866527936z" style="fill:rgb(21,57,142)"/><path d="M-37.068592615603805,148.59711631068708L-43.01629605709545,141.69803335622416L-39.29306136106192,147.48365938066485z" style="fill:rgb(51,38,177)"/><path d="M-39.29306136106192,147.48365938066485L-43.01629605709545,141.69803335622416L-44.81692665432385,140.14773637262226z" style="fill:rgb(34,46,160)"/><path d="M-34.50142347093985,149.22517889376124L-40.78464746548547,142.8074542745212L-37.068592615603805,148.59711631068708z" style="fill:rgb(71,33,192)"/><path d="M-37.068592615603805,148.59711631068708L-40.78464746548547,142.8074542745212L-43.01629605709545,141.69803335622416z" style="fill:rgb(51,38,177)"/><path d="M-31.691039879464373,149.34069503586912L-38.2070365493322,143.42989239967787L-34.50142347093985,149.22517889376124z" style="fill:rgb(92,32,204)"/><path d="M-34.50142347093985,149.22517889376124L-38.2070365493322,143.42989239967787L-40.78464746548547,142.8074542745212z" style="fill:rgb(71,33,192)"/><path d="M-28.74773906383241,148.93707322020387L-35.38334097009307,143.53838986401735L-31.691039879464373,149.34069503586912z" style="fill:rgb(115,34,214)"/><path d="M-42.31835188095364,142.04499939860523L-40.78464746548547,142.8074542745212L-38.2070365493322,143.42989239967787z" style="fill:rgb(83,212,212)"/><path d="M-31.691039879464373,149.34069503586912L-35.38334097009307,143.53838986401735L-38.2070365493322,143.42989239967787z" style="fill:rgb(92,32,204)"/><path d="M-42.31835188095364,142.04499939860523L-38.2070365493322,143.42989239967787L-35.38334097009307,143.53838986401735z" style="fill:rgb(83,212,212)"/><path d="M-28.74773906383241,148.93707322020387L-32.42440104920522,143.12660280864597L-35.38334097009307,143.53838986401735z" style="fill:rgb(115,34,214)"/><path d="M-42.31835188095364,142.04499939860523L-35.38334097009307,143.53838986401735L-32.42440104920522,143.12660280864597zM-42.31835188095364,142.04499939860523L-32.42440104920522,143.12660280864597L-22.598867476454327,140.92751431031627z" style="fill:rgb(83,212,212)"/><path d="M32.70744928362699,135.28397809020026L-32.42440104920522,143.12660280864597L-28.74773906383241,148.93707322020387z" style="fill:rgb(127,37,217)"/><path d="M39.642437528656046,123.63352494697557L43.62275154899227,117.9549798665124L57.15926417351295,90.39239971755052z" style="fill:rgb(83,212,212)"/><path d="M32.70744928362699,135.28397809020026L29.380387692297912,129.2937985941207L-32.42440104920522,143.12660280864597z" style="fill:rgb(127,37,217)"/><path d="M46.845430036244515,123.9992323915126L42.25521583127023,120.5345617713357L45.491940780997844,126.57143861910424z" style="fill:rgb(233,112,197)"/><path d="M45.491940780997844,126.57143861910424L40.37105771733315,122.95560928022944L43.62408809540788,128.98395247445185z" style="fill:rgb(220,94,208)"/><path d="M46.845430036244515,123.9992323915126L43.62275154899227,117.9549798665124L42.25521583127023,120.5345617713357z" style="fill:rgb(233,112,197)"/><path d="M43.62408809540788,128.98395247445185L38.04313708599731,125.12155684134393L41.31409698956943,131.14056580225017z" style="fill:rgb(203,77,216)"/><path d="M35.745205098258815,134.3546296420274L29.380387692297912,129.2937985941207L32.70744928362699,135.28397809020026z" style="fill:rgb(139,40,220)"/><path d="M41.31409698956943,131.14056580225017L35.362867670106944,126.94570414360587L38.65265982530607,132.9549697971932z" style="fill:rgb(183,62,221)"/><path d="M38.65265982530607,132.9549697971932L32.43645633119964,128.35511062559215L35.745205098258815,134.3546296420274z" style="fill:rgb(162,50,222)"/><path d="M45.491940780997844,126.57143861910424L42.25521583127023,120.5345617713357L40.37105771733315,122.95560928022944z" style="fill:rgb(220,94,208)"/><path d="M43.62408809540788,128.98395247445185L40.37105771733315,122.95560928022944L38.04313708599731,125.12155684134393z" style="fill:rgb(203,77,216)"/><path d="M35.745205098258815,134.3546296420274L32.43645633119964,128.35511062559215L29.380387692297912,129.2937985941207z" style="fill:rgb(139,40,220)"/><path d="M39.642437528656046,123.63352494697557L42.25521583127023,120.5345617713357L43.62275154899227,117.9549798665124z" style="fill:rgb(83,212,212)"/><path d="M41.31409698956943,131.14056580225017L38.04313708599731,125.12155684134393L35.362867670106944,126.94570414360587z" style="fill:rgb(183,62,221)"/><path d="M38.65265982530607,132.9549697971932L35.362867670106944,126.94570414360587L32.43645633119964,128.35511062559215z" style="fill:rgb(162,50,222)"/><path d="M39.642437528656046,123.63352494697557L40.37105771733315,122.95560928022944L42.25521583127023,120.5345617713357zM19.299688680791576,131.55000804445828L38.04313708599731,125.12155684134393L39.642437528656046,123.63352494697557zM19.299688680791576,131.55000804445828L29.380387692297912,129.2937985941207L32.43645633119964,128.35511062559215zM19.299688680791576,131.55000804445828L35.362867670106944,126.94570414360587L38.04313708599731,125.12155684134393zM19.299688680791576,131.55000804445828L32.43645633119964,128.35511062559215L35.362867670106944,126.94570414360587z" style="fill:rgb(83,212,212)"/></svg>
